<?xml version="1.0" encoding="UTF-8"?>
<svg id="Warstwa_2" data-name="Warstwa 2" xmlns="http://www.w3.org/2000/svg" viewBox="0 0 66.59 66.59">
  <defs>
    <style>
      .cls-1 {
        fill: #e4effa;
      }
    </style>
  </defs>
  <g id="Warstwa_1-2" data-name="Warstwa 1">
    <g>
      <g>
        <path class="cls-1" d="M66.59,25.06v22.11c0,3.72-3.03,6.75-6.75,6.75h-11.55v.5h-.91c-.35,0-.67-.13-.91-.34v-2.14c.06-.05,.12-.09,.18-.13,.04-.03,.07-.05,.11-.06,.03-.02,.07-.03,.11-.05,.07-.03,.15-.06,.23-.07,.09-.02,.19-.03,.28-.03h.91v.5h11.55c2.72,0,4.94-2.21,4.94-4.93v-8.74h-.5v-1.82h.5v-11.55c0-2.72-2.22-4.94-4.94-4.94h-10.78c-.1,.19-.24,.36-.4,.5h-2.56c-.16-.14-.3-.31-.4-.5H20.89c-.1,.19-.24,.37-.4,.5h-2.55c-.16-.13-.3-.3-.39-.5H6.75c-2.72,0-4.93,2.22-4.93,4.94v11.55h.5v1.82h-.5v8.74c0,2.72,2.21,4.93,4.93,4.93h11.56v-.5h.9c.09,0,.19,.01,.28,.03,.08,.01,.16,.04,.23,.07,.04,.02,.08,.03,.11,.05,.04,.01,.08,.03,.11,.06,.06,.04,.12,.08,.18,.13v2.14c-.24,.21-.56,.34-.91,.34h-.9v-.5H6.75c-3.72,0-6.75-3.03-6.75-6.75V25.06c0-3.72,3.03-6.75,6.75-6.75h5.92v-.5h1.82v.5h3.82v-.5h1.81v.5h26.35v-.5h1.82v.5h3.81v-.5h1.82v.5h5.92c3.72,0,6.75,3.03,6.75,6.75Z"/>
        <path class="cls-1" d="M17.55,20.12c.09,.2,.23,.37,.39,.5,.34,.32,.78,.5,1.27,.5s.94-.18,1.28-.5c.16-.13,.3-.31,.4-.5h-3.34Zm28.15,0c.1,.19,.24,.36,.4,.5,.34,.32,.78,.5,1.28,.5s.94-.18,1.28-.5c.16-.14,.3-.31,.4-.5h-3.36ZM1.82,36.61v1.82h1v-1.82H1.82Zm61.96,0v1.82h1v-1.82h-1ZM17.55,20.12c.09,.2,.23,.37,.39,.5,.34,.32,.78,.5,1.27,.5s.94-.18,1.28-.5c.16-.13,.3-.31,.4-.5h-3.34Zm28.15,0c.1,.19,.24,.36,.4,.5,.34,.32,.78,.5,1.28,.5s.94-.18,1.28-.5c.16-.14,.3-.31,.4-.5h-3.36ZM1.82,36.61v1.82h1v-1.82H1.82Zm17.39,14.49h-.9v1h.9c.5,0,.91,.41,.91,.91v-1.68c-.27-.14-.58-.23-.91-.23Zm44.57-14.49v1.82h1v-1.82h-1Zm-16.4,14.49c-.33,0-.64,.09-.91,.23v1.68c0-.5,.41-.91,.91-.91h.91v-1h-.91ZM17.55,20.12c.09,.2,.23,.37,.39,.5,.34,.32,.78,.5,1.27,.5s.94-.18,1.28-.5c.16-.13,.3-.31,.4-.5h-3.34Zm28.15,0c.1,.19,.24,.36,.4,.5,.34,.32,.78,.5,1.28,.5s.94-.18,1.28-.5c.16-.14,.3-.31,.4-.5h-3.36ZM1.82,36.61v1.82h1v-1.82H1.82Zm17.39,14.49h-.9v1h.9c.5,0,.91,.41,.91,.91v-1.68c-.27-.14-.58-.23-.91-.23Zm44.57-14.49v1.82h1v-1.82h-1Zm-16.4,14.49c-.33,0-.64,.09-.91,.23v1.68c0-.5,.41-.91,.91-.91h.91v-1h-.91ZM18.31,17.31v1h1.81v-1h-1.81Zm-5.64,0v1h1.82v-1h-1.82Zm33.8,0v1h1.82v-1h-1.82Zm5.63,0v1h1.82v-1h-1.82Zm-6.4,2.81c.1,.19,.24,.36,.4,.5,.34,.32,.78,.5,1.28,.5s.94-.18,1.28-.5c.16-.14,.3-.31,.4-.5h-3.36ZM19.21,53.92h-.9v1h.9c.33,0,.64-.09,.91-.23v-1.68c0,.5-.41,.91-.91,.91Zm-1.66-33.8c.09,.2,.23,.37,.39,.5,.34,.32,.78,.5,1.27,.5s.94-.18,1.28-.5c.16-.13,.3-.31,.4-.5h-3.34Zm28.15,0c.1,.19,.24,.36,.4,.5,.34,.32,.78,.5,1.28,.5s.94-.18,1.28-.5c.16-.14,.3-.31,.4-.5h-3.36ZM1.82,36.61v1.82h1v-1.82H1.82Zm17.39,14.49h-.9v1h.9c.5,0,.91,.41,.91,.91v-1.68c-.27-.14-.58-.23-.91-.23Zm44.57-14.49v1.82h1v-1.82h-1Zm-16.4,14.49c-.33,0-.64,.09-.91,.23v1.68c0-.5,.41-.91,.91-.91h.91v-1h-.91Zm0,2.82c-.5,0-.91-.41-.91-.91v1.68c.27,.14,.58,.23,.91,.23h.91v-1h-.91ZM17.55,20.12c.09,.2,.23,.37,.39,.5,.34,.32,.78,.5,1.27,.5s.94-.18,1.28-.5c.16-.13,.3-.31,.4-.5h-3.34Zm28.15,0c.1,.19,.24,.36,.4,.5,.34,.32,.78,.5,1.28,.5s.94-.18,1.28-.5c.16-.14,.3-.31,.4-.5h-3.36ZM1.82,36.61v1.82h1v-1.82H1.82Zm17.39,14.49h-.9v1h.9c.5,0,.91,.41,.91,.91v-1.68c-.27-.14-.58-.23-.91-.23Zm44.57-14.49v1.82h1v-1.82h-1Zm-16.4,14.49c-.33,0-.64,.09-.91,.23v1.68c0-.5,.41-.91,.91-.91h.91v-1h-.91ZM17.55,20.12c.09,.2,.23,.37,.39,.5,.34,.32,.78,.5,1.27,.5s.94-.18,1.28-.5c.16-.13,.3-.31,.4-.5h-3.34Zm28.15,0c.1,.19,.24,.36,.4,.5,.34,.32,.78,.5,1.28,.5s.94-.18,1.28-.5c.16-.14,.3-.31,.4-.5h-3.36ZM1.82,36.61v1.82h1v-1.82H1.82Zm17.39,14.49h-.9v1h.9c.5,0,.91,.41,.91,.91v-1.68c-.27-.14-.58-.23-.91-.23Zm44.57-14.49v1.82h1v-1.82h-1Zm-16.4,14.49c-.33,0-.64,.09-.91,.23v1.68c0-.5,.41-.91,.91-.91h.91v-1h-.91Z"/>
      </g>
      <g>
        <path class="cls-1" d="M20.62,18.31v.9c0,.35-.13,.67-.34,.91h.61c.15-.27,.23-.58,.23-.91v-.9h-.5Zm-1.41-11.27h-.9v11.27h1.81V7.95c0-.5-.41-.91-.91-.91Zm26.76,12.17v-.9H20.12v.9c0,.51-.41,.91-.91,.91h27.1c-.21-.24-.34-.56-.34-.91ZM19.21,7.04h-.9v11.27h1.81V7.95c0-.5-.41-.91-.91-.91Zm26.76,12.17v-.9H20.12v.9c0,.51-.41,.91-.91,.91h27.1c-.21-.24-.34-.56-.34-.91ZM19.21,7.04h-.9v11.27h1.81V7.95c0-.5-.41-.91-.91-.91Zm27.26,10.77v.5h1.82v-.5h-1.82Zm0,1.4v-.9H20.12v.9c0,.51-.41,.91-.91,.91h28.17c-.5,0-.91-.4-.91-.91ZM19.21,7.04h-.9v11.27h1.81V7.95c0-.5-.41-.91-.91-.91Zm27.26,10.77v.5h1.82v-.5h-1.82Zm0,1.4v-.9h-.5v.9c0,.35,.13,.67,.34,.91h1.07c-.5,0-.91-.4-.91-.91Zm-26.35-.9v.9c0,.51-.41,.91-.91,.91h1.07c.21-.24,.34-.56,.34-.91v-.9h-.5Zm-.91-11.27h-.9v11.27h1.81V7.95c0-.5-.41-.91-.91-.91Zm27.26,10.77v.5h1.82v-.5h-1.82Zm0,1.4v-.9h-.5v.9c0,.35,.13,.67,.34,.91h1.07c-.5,0-.91-.4-.91-.91Zm-26.35-.9v.9c0,.51-.41,.91-.91,.91h1.07c.21-.24,.34-.56,.34-.91v-.9h-.5Zm-.91-11.27h-.9v11.27h1.81V7.95c0-.5-.41-.91-.91-.91Zm27.26,12.17v-.9h-.5v.9c0,.35,.13,.67,.34,.91h1.07c-.5,0-.91-.4-.91-.91Zm-26.35-.9v.9c0,.51-.41,.91-.91,.91h1.07c.21-.24,.34-.56,.34-.91v-.9h-.5Zm-.91-11.27h-.9v11.27h1.81V7.95c0-.5-.41-.91-.91-.91Zm27.26,12.17v-.9h-.5v.9c0,.35,.13,.67,.34,.91h1.07c-.5,0-.91-.4-.91-.91Zm-26.35,0c0,.51-.41,.91-.91,.91h1.07c.21-.24,.34-.56,.34-.91v-.9h-.5v.9Zm0-11.26c0-.5-.41-.91-.91-.91h-.9v11.27h1.81V7.95Zm28.17,.91h.5v-1.82h-.5V.91c0-.5-.41-.91-.91-.91H19.21c-.5,0-.9,.41-.9,.91V7.04h-.5v1.82h.5v9.45h-.5v.9c0,.35,.13,.67,.34,.91,.25,.31,.63,.5,1.06,.5h1.28c.16-.13,.3-.31,.4-.5h24.81c.1,.19,.24,.36,.4,.5h1.28c.43,0,.82-.19,1.07-.5,.21-.24,.34-.56,.34-.91v-.9h-.5V8.86Zm-1.82,9.45H20.12V1.82h26.35V18.31ZM19.21,7.04h-.9v11.27h1.81V7.95c0-.5-.41-.91-.91-.91Zm.91,11.27v.9c0,.51-.41,.91-.91,.91h1.07c.21-.24,.34-.56,.34-.91v-.9h-.5Zm26.35,.9v-.9h-.5v.9c0,.35,.13,.67,.34,.91h1.07c-.5,0-.91-.4-.91-.91ZM19.21,7.04h-.9v11.27h1.81V7.95c0-.5-.41-.91-.91-.91Zm.91,11.27v.9c0,.51-.41,.91-.91,.91h1.07c.21-.24,.34-.56,.34-.91v-.9h-.5Zm26.35,.9v-.9h-.5v.9c0,.35,.13,.67,.34,.91h1.07c-.5,0-.91-.4-.91-.91ZM19.21,7.04h-.9v11.27h1.81V7.95c0-.5-.41-.91-.91-.91Zm.91,11.27v.9c0,.51-.41,.91-.91,.91h1.07c.21-.24,.34-.56,.34-.91v-.9h-.5Zm26.35,.9v-.9h-.5v.9c0,.35,.13,.67,.34,.91h1.07c-.5,0-.91-.4-.91-.91Zm0-1.4v.5h1.82v-.5h-1.82ZM19.21,7.04h-.9v11.27h1.81V7.95c0-.5-.41-.91-.91-.91Zm27.26,12.17v-.9H20.12v.9c0,.51-.41,.91-.91,.91h28.17c-.5,0-.91-.4-.91-.91Zm0-1.4v.5h1.82v-.5h-1.82ZM19.21,7.04h-.9v11.27h1.81V7.95c0-.5-.41-.91-.91-.91Zm26.76,12.17v-.9H20.12v.9c0,.51-.41,.91-.91,.91h27.1c-.21-.24-.34-.56-.34-.91ZM19.21,7.04h-.9v11.27h1.81V7.95c0-.5-.41-.91-.91-.91Zm26.76,12.17v-.9H20.12v.9c0,.51-.41,.91-.91,.91h27.1c-.21-.24-.34-.56-.34-.91ZM19.21,7.04h-.9v11.27h1.81V7.95c0-.5-.41-.91-.91-.91Z"/>
        <path class="cls-1" d="M17.31,7.04v1.82h1v-1.82h-1Zm30.98,0v1.82h1v-1.82h-1Zm-29.08,13.08c-.5,0-.9-.4-.9-.91v-.9h-1v.9c0,.33,.08,.64,.24,.91,.09,.2,.23,.37,.39,.5,.34,.32,.78,.5,1.27,.5s.94-.18,1.28-.5c.16-.13,.3-.31,.4-.5h-1.68Zm29.08-1.81v.9c0,.51-.41,.91-.91,.91h-1.68c.1,.19,.24,.36,.4,.5,.34,.32,.78,.5,1.28,.5s.94-.18,1.28-.5c.16-.14,.3-.31,.4-.5,.14-.27,.23-.58,.23-.91v-.9h-1Z"/>
      </g>
      <g>
        <path class="cls-1" d="M48.45,45.06H18.15c-.21,.24-.34,.56-.34,.91v.91h.5v4.72h.9c.09,0,.19,.01,.28,.03,.08,.01,.16,.04,.23,.07,.04,.02,.08,.03,.11,.05,.04,.01,.08,.03,.11,.06,.06,.04,.12,.08,.18,.13v-5.06h26.35v5.06c.06-.05,.12-.09,.18-.13,.04-.03,.07-.05,.11-.06,.03-.02,.07-.03,.11-.05,.07-.03,.15-.06,.23-.07,.09-.02,.19-.03,.28-.03h.91v-4.72h.5v-.91c0-.35-.13-.67-.34-.91Zm0,0H18.15c-.21,.24-.34,.56-.34,.91v.91h.5v.5h1.81v-.5h26.35v6.13c0-.5,.41-.91,.91-.91h.91v-5.22h.5v-.91c0-.35-.13-.67-.34-.91Zm0,0H18.15c-.21,.24-.34,.56-.34,.91v.91h.5v4.72h.9c.09,0,.19,.01,.28,.03,.08,.01,.16,.04,.23,.07,.04,.02,.08,.03,.11,.05,.04,.01,.08,.03,.11,.06,.06,.04,.12,.08,.18,.13v-5.06h26.35v6.13c0-.5,.41-.91,.91-.91h.91v-5.22h.5v-.91c0-.35-.13-.67-.34-.91Zm0,0H18.15c-.21,.24-.34,.56-.34,.91v.91h.5v4.72h.9c.09,0,.19,.01,.28,.03,.08,.01,.16,.04,.23,.07,.04,.02,.08,.03,.11,.05,.04,.01,.08,.03,.11,.06,.06,.04,.12,.08,.18,.13v-5.06h26.35v6.13c0-.5,.41-.91,.91-.91h.91v-5.22h.5v-.91c0-.35-.13-.67-.34-.91Zm0,0H18.15c-.21,.24-.34,.56-.34,.91v.91h.5v4.72h.9c.09,0,.19,.01,.28,.03,.08,.01,.16,.04,.23,.07,.04,.02,.08,.03,.11,.05,.04,.01,.08,.03,.11,.06,.06,.04,.12,.08,.18,.13v-5.06h26.35v6.13c0-.5,.41-.91,.91-.91h.91v-5.22h.5v-.91c0-.35-.13-.67-.34-.91Zm0,0H18.15c-.21,.24-.34,.56-.34,.91v.91h.5v4.72h.9c.09,0,.19,.01,.28,.03,.08,.01,.16,.04,.23,.07,.04,.02,.08,.03,.11,.05,.04,.01,.08,.03,.11,.06,.06,.04,.12,.08,.18,.13v-5.06h26.35v6.13c0-.5,.41-.91,.91-.91h.91v-5.22h.5v-.91c0-.35-.13-.67-.34-.91Zm0,0H18.15c-.21,.24-.34,.56-.34,.91v.91h.5v4.72h.9c.09,0,.19,.01,.28,.03,.08,.01,.16,.04,.23,.07,.04,.02,.08,.03,.11,.05,.04,.01,.08,.03,.11,.06,.06,.04,.12,.08,.18,.13v-5.06h26.35v6.13c0-.5,.41-.91,.91-.91h.91v-5.22h.5v-.91c0-.35-.13-.67-.34-.91Zm-.16,1.82h.5v-.91c0-.35-.13-.67-.34-.91H18.15c-.21,.24-.34,.56-.34,.91v.91h.5v5.22h-.5v1.82h.5v11.77c0,.5,.4,.9,.9,.9h28.17c.5,0,.91-.4,.91-.9v-11.77h.5v-1.82h-.5v-5.22Zm-1.82,17.9H20.12v-17.9h26.35v17.9Zm1.98-19.72H18.15c-.21,.24-.34,.56-.34,.91v.91h.5v4.72h.9c.09,0,.19,.01,.28,.03,.08,.01,.16,.04,.23,.07,.04,.02,.08,.03,.11,.05,.04,.01,.08,.03,.11,.06,.06,.04,.12,.08,.18,.13v-5.06h26.35v6.13c0-.5,.41-.91,.91-.91h.91v-5.22h.5v-.91c0-.35-.13-.67-.34-.91Zm0,0H18.15c-.21,.24-.34,.56-.34,.91v.91h.5v4.72h.9c.09,0,.19,.01,.28,.03,.08,.01,.16,.04,.23,.07,.04,.02,.08,.03,.11,.05,.04,.01,.08,.03,.11,.06,.06,.04,.12,.08,.18,.13v-5.06h26.35v6.13c0-.5,.41-.91,.91-.91h.91v-5.22h.5v-.91c0-.35-.13-.67-.34-.91Zm0,0H18.15c-.21,.24-.34,.56-.34,.91v.91h.5v4.72h.9c.09,0,.19,.01,.28,.03,.08,.01,.16,.04,.23,.07,.04,.02,.08,.03,.11,.05,.04,.01,.08,.03,.11,.06,.06,.04,.12,.08,.18,.13v-5.06h26.35v6.13c0-.5,.41-.91,.91-.91h.91v-5.22h.5v-.91c0-.35-.13-.67-.34-.91Zm0,0H18.15c-.21,.24-.34,.56-.34,.91v.91h.5v4.72h.9c.09,0,.19,.01,.28,.03,.08,.01,.16,.04,.23,.07,.04,.02,.08,.03,.11,.05,.04,.01,.08,.03,.11,.06,.06,.04,.12,.08,.18,.13v-5.06h26.35v6.13c0-.5,.41-.91,.91-.91h.91v-5.22h.5v-.91c0-.35-.13-.67-.34-.91Zm0,0H18.15c-.21,.24-.34,.56-.34,.91v.91h.5v.5h1.81v-.5h26.35v6.13c0-.5,.41-.91,.91-.91h.91v-5.22h.5v-.91c0-.35-.13-.67-.34-.91Z"/>
        <path class="cls-1" d="M17.55,45.06c-.16,.27-.24,.58-.24,.91v.91h1v-.91c0-.5,.4-.91,.9-.91h-1.66Zm31.51,0h-1.68c.5,0,.91,.41,.91,.91v.91h1v-.91c0-.33-.09-.64-.23-.91Zm-31.75,7.04v1.82h1v-1.82h-1Zm30.98,0v1.82h1v-1.82h-1Z"/>
      </g>
      <g>
        <path class="cls-1" d="M47.38,7.04c-.5,0-.91,.41-.91,.91v9.86h1.82V7.04h-.91Zm0,0c-.5,0-.91,.41-.91,.91v10.36h1.82V7.04h-.91Zm0,0c-.5,0-.91,.41-.91,.91v10.36h1.82V7.04h-.91Zm6.54,11.27V7.95c0-.5-.41-.91-.91-.91h-4.72v-.5h-.91c-.35,0-.67,.13-.91,.34v11.43h-.5v.9c0,.35,.13,.67,.34,.91,.25,.31,.64,.5,1.07,.5h1.28c.16-.14,.3-.31,.4-.5h5.02c.21-.24,.34-.56,.34-.91v-.9h-.5Zm-5.63,0V8.86h3.81v9.45h-3.81Zm-.91-11.27c-.5,0-.91,.41-.91,.91v10.36h1.82V7.04h-.91Zm0,0c-.5,0-.91,.41-.91,.91v10.36h1.82V7.04h-.91Zm0,0c-.5,0-.91,.41-.91,.91v9.86h1.82V7.04h-.91Z"/>
        <path class="cls-1" d="M46.47,19.21v-.9h-1v.9c0,.33,.09,.64,.23,.91h1.68c-.5,0-.91-.4-.91-.91Zm0,0v-.9h-1v.9c0,.33,.09,.64,.23,.91h1.68c-.5,0-.91-.4-.91-.91Zm0,0v-.9h-1v.9c0,.33,.09,.64,.23,.91h1.68c-.5,0-.91-.4-.91-.91Zm0,0v-.9h-1v.9c0,.33,.09,.64,.23,.91h1.68c-.5,0-.91-.4-.91-.91Zm0,0v-.9h-1v.9c0,.33,.09,.64,.23,.91h1.68c-.5,0-.91-.4-.91-.91Zm0,0v-.9h-1v.9c0,.33,.09,.64,.23,.91h1.68c-.5,0-.91-.4-.91-.91Zm0,0v-.9h-1v.9c0,.33,.09,.64,.23,.91h1.68c-.5,0-.91-.4-.91-.91Zm0,0v-.9h-1v.9c0,.33,.09,.64,.23,.91h1.68c-.5,0-.91-.4-.91-.91Zm0,0v-.9h-1v.9c0,.33,.09,.64,.23,.91h1.68c-.5,0-.91-.4-.91-.91Zm0,0v-.9h-1v.9c0,.33,.09,.64,.23,.91h1.68c-.5,0-.91-.4-.91-.91Zm0,0v-.9h-1v.9c0,.33,.09,.64,.23,.91h1.68c-.5,0-.91-.4-.91-.91Zm0,0v-.9h-1v.9c0,.33,.09,.64,.23,.91h1.68c-.5,0-.91-.4-.91-.91Zm0,0v-.9h-1v.9c0,.33,.09,.64,.23,.91h1.68c-.5,0-.91-.4-.91-.91Zm0,0v-.9h-1v.9c0,.33,.09,.64,.23,.91h1.68c-.5,0-.91-.4-.91-.91Zm0,0v-.9h-1v.9c0,.33,.09,.64,.23,.91h1.68c-.5,0-.91-.4-.91-.91Zm0,0v-.9h-1v.9c0,.33,.09,.64,.23,.91h1.68c-.5,0-.91-.4-.91-.91Zm0,0v-.9h-1v.9c0,.33,.09,.64,.23,.91h1.68c-.5,0-.91-.4-.91-.91Zm0,0v-.9h-1v.9c0,.33,.09,.64,.23,.91h1.68c-.5,0-.91-.4-.91-.91Zm0,0v-.9h-1v.9c0,.33,.09,.64,.23,.91h1.68c-.5,0-.91-.4-.91-.91Zm7.45-.9v.9c0,.51-.41,.91-.91,.91h1.68c.15-.27,.23-.58,.23-.91v-.9h-1Zm-6.54-12.27c-.33,0-.64,.09-.91,.23v1.68c0-.5,.41-.91,.91-.91h.91v-1h-.91Zm0,14.08c-.5,0-.91-.4-.91-.91v-.9h-1v.9c0,.33,.09,.64,.23,.91,.1,.19,.24,.36,.4,.5,.34,.32,.78,.5,1.28,.5s.94-.18,1.28-.5c.16-.14,.3-.31,.4-.5h-1.68Zm-.91-.91v-.9h-1v.9c0,.33,.09,.64,.23,.91h1.68c-.5,0-.91-.4-.91-.91Zm0,0v-.9h-1v.9c0,.33,.09,.64,.23,.91h1.68c-.5,0-.91-.4-.91-.91Zm0,0v-.9h-1v.9c0,.33,.09,.64,.23,.91h1.68c-.5,0-.91-.4-.91-.91Zm0,0v-.9h-1v.9c0,.33,.09,.64,.23,.91h1.68c-.5,0-.91-.4-.91-.91Zm0,0v-.9h-1v.9c0,.33,.09,.64,.23,.91h1.68c-.5,0-.91-.4-.91-.91Zm0,0v-.9h-1v.9c0,.33,.09,.64,.23,.91h1.68c-.5,0-.91-.4-.91-.91Zm0,0v-.9h-1v.9c0,.33,.09,.64,.23,.91h1.68c-.5,0-.91-.4-.91-.91Zm0,0v-.9h-1v.9c0,.33,.09,.64,.23,.91h1.68c-.5,0-.91-.4-.91-.91Zm0,0v-.9h-1v.9c0,.33,.09,.64,.23,.91h1.68c-.5,0-.91-.4-.91-.91Zm0,0v-.9h-1v.9c0,.33,.09,.64,.23,.91h1.68c-.5,0-.91-.4-.91-.91Zm0,0v-.9h-1v.9c0,.33,.09,.64,.23,.91h1.68c-.5,0-.91-.4-.91-.91Zm0,0v-.9h-1v.9c0,.33,.09,.64,.23,.91h1.68c-.5,0-.91-.4-.91-.91Zm0,0v-.9h-1v.9c0,.33,.09,.64,.23,.91h1.68c-.5,0-.91-.4-.91-.91Zm0,0v-.9h-1v.9c0,.33,.09,.64,.23,.91h1.68c-.5,0-.91-.4-.91-.91Zm0,0v-.9h-1v.9c0,.33,.09,.64,.23,.91h1.68c-.5,0-.91-.4-.91-.91Zm0,0v-.9h-1v.9c0,.33,.09,.64,.23,.91h1.68c-.5,0-.91-.4-.91-.91Zm0,0v-.9h-1v.9c0,.33,.09,.64,.23,.91h1.68c-.5,0-.91-.4-.91-.91Zm0,0v-.9h-1v.9c0,.33,.09,.64,.23,.91h1.68c-.5,0-.91-.4-.91-.91Zm0,0v-.9h-1v.9c0,.33,.09,.64,.23,.91h1.68c-.5,0-.91-.4-.91-.91Z"/>
      </g>
      <g>
        <path class="cls-1" d="M20.12,18.31V6.88c-.24-.21-.56-.34-.91-.34h-.9v.5h-4.73c-.5,0-.91,.41-.91,.91v10.36h-.5v.9c0,.35,.13,.67,.34,.91h5.04c.09,.2,.23,.37,.39,.5h1.27c.43,0,.82-.19,1.07-.5,.21-.24,.34-.56,.34-.91v-.9h-.5Zm-5.63,0V8.86h3.82v9.45h-3.82Z"/>
        <path class="cls-1" d="M20.12,18.31v.9c0,.51-.41,.91-.91,.91h1.68c.15-.27,.23-.58,.23-.91v-.9h-1Zm0,0v.9c0,.51-.41,.91-.91,.91h1.68c.15-.27,.23-.58,.23-.91v-.9h-1Zm0,0v.9c0,.51-.41,.91-.91,.91h1.68c.15-.27,.23-.58,.23-.91v-.9h-1Zm0,0v.9c0,.51-.41,.91-.91,.91h1.68c.15-.27,.23-.58,.23-.91v-.9h-1Zm0,0v.9c0,.51-.41,.91-.91,.91h1.68c.15-.27,.23-.58,.23-.91v-.9h-1Zm0,0v.9c0,.51-.41,.91-.91,.91h1.68c.15-.27,.23-.58,.23-.91v-.9h-1Zm0,0v.9c0,.51-.41,.91-.91,.91h1.68c.15-.27,.23-.58,.23-.91v-.9h-1Zm0,0v.9c0,.51-.41,.91-.91,.91h1.68c.15-.27,.23-.58,.23-.91v-.9h-1Zm0,0v.9c0,.51-.41,.91-.91,.91h1.68c.15-.27,.23-.58,.23-.91v-.9h-1Zm0,0v.9c0,.51-.41,.91-.91,.91h1.68c.15-.27,.23-.58,.23-.91v-.9h-1Zm0,0v.9c0,.51-.41,.91-.91,.91h1.68c.15-.27,.23-.58,.23-.91v-.9h-1Zm0,0v.9c0,.51-.41,.91-.91,.91h1.68c.15-.27,.23-.58,.23-.91v-.9h-1Zm0,0v.9c0,.51-.41,.91-.91,.91h1.68c.15-.27,.23-.58,.23-.91v-.9h-1Zm0,0v.9c0,.51-.41,.91-.91,.91h1.68c.15-.27,.23-.58,.23-.91v-.9h-1Zm0,0v.9c0,.51-.41,.91-.91,.91h1.68c.15-.27,.23-.58,.23-.91v-.9h-1Zm0,0v.9c0,.51-.41,.91-.91,.91h1.68c.15-.27,.23-.58,.23-.91v-.9h-1Zm0,0v.9c0,.51-.41,.91-.91,.91h1.68c.15-.27,.23-.58,.23-.91v-.9h-1Zm0,0v.9c0,.51-.41,.91-.91,.91h1.68c.15-.27,.23-.58,.23-.91v-.9h-1Zm0,0v.9c0,.51-.41,.91-.91,.91h-1.66c.09,.2,.23,.37,.39,.5,.34,.32,.78,.5,1.27,.5s.94-.18,1.28-.5c.16-.13,.3-.31,.4-.5,.15-.27,.23-.58,.23-.91v-.9h-1Zm-.91-12.27h-.9v1h.9c.5,0,.91,.41,.91,.91v-1.68c-.27-.14-.58-.23-.91-.23Zm-6.54,13.17v-.9h-1v.9c0,.33,.09,.64,.23,.91h1.68c-.5,0-.91-.4-.91-.91Zm7.45-.9v.9c0,.51-.41,.91-.91,.91h1.68c.15-.27,.23-.58,.23-.91v-.9h-1Zm0,0v.9c0,.51-.41,.91-.91,.91h1.68c.15-.27,.23-.58,.23-.91v-.9h-1Zm0,0v.9c0,.51-.41,.91-.91,.91h1.68c.15-.27,.23-.58,.23-.91v-.9h-1Zm0,0v.9c0,.51-.41,.91-.91,.91h1.68c.15-.27,.23-.58,.23-.91v-.9h-1Zm0,0v.9c0,.51-.41,.91-.91,.91h1.68c.15-.27,.23-.58,.23-.91v-.9h-1Zm0,0v.9c0,.51-.41,.91-.91,.91h1.68c.15-.27,.23-.58,.23-.91v-.9h-1Zm0,0v.9c0,.51-.41,.91-.91,.91h1.68c.15-.27,.23-.58,.23-.91v-.9h-1Zm0,0v.9c0,.51-.41,.91-.91,.91h1.68c.15-.27,.23-.58,.23-.91v-.9h-1Zm0,0v.9c0,.51-.41,.91-.91,.91h1.68c.15-.27,.23-.58,.23-.91v-.9h-1Zm0,0v.9c0,.51-.41,.91-.91,.91h1.68c.15-.27,.23-.58,.23-.91v-.9h-1Zm0,0v.9c0,.51-.41,.91-.91,.91h1.68c.15-.27,.23-.58,.23-.91v-.9h-1Zm0,0v.9c0,.51-.41,.91-.91,.91h1.68c.15-.27,.23-.58,.23-.91v-.9h-1Zm0,0v.9c0,.51-.41,.91-.91,.91h1.68c.15-.27,.23-.58,.23-.91v-.9h-1Zm0,0v.9c0,.51-.41,.91-.91,.91h1.68c.15-.27,.23-.58,.23-.91v-.9h-1Zm0,0v.9c0,.51-.41,.91-.91,.91h1.68c.15-.27,.23-.58,.23-.91v-.9h-1Zm0,0v.9c0,.51-.41,.91-.91,.91h1.68c.15-.27,.23-.58,.23-.91v-.9h-1Zm0,0v.9c0,.51-.41,.91-.91,.91h1.68c.15-.27,.23-.58,.23-.91v-.9h-1Zm0,0v.9c0,.51-.41,.91-.91,.91h1.68c.15-.27,.23-.58,.23-.91v-.9h-1Zm0,0v.9c0,.51-.41,.91-.91,.91h1.68c.15-.27,.23-.58,.23-.91v-.9h-1Z"/>
      </g>
      <g>
        <path class="cls-1" d="M52.51,45.97c0,.5-.41,.91-.91,.91h-3.31v.5h-1.82v-.5H20.12v.5h-1.81v-.5h-3.32c-.5,0-.91-.41-.91-.91s.41-.91,.91-.91H51.6c.5,0,.91,.41,.91,.91Z"/>
        <path class="cls-1" d="M18.31,46.88v1h1.81v-1h-1.81Zm28.16,0v1h1.82v-1h-1.82Zm-28.16,0v.5h1.81v-.5h-1.81Z"/>
      </g>
      <path class="cls-1" d="M41.25,60.05c0,.5-.41,.91-.91,.91h-14.09c-.5,0-.9-.41-.9-.91s.4-.91,.9-.91h14.09c.5,0,.91,.41,.91,.91Z"/>
      <path class="cls-1" d="M41.25,54.42c0,.5-.41,.91-.91,.91h-14.09c-.5,0-.9-.41-.9-.91s.4-.91,.9-.91h14.09c.5,0,.91,.41,.91,.91Z"/>
      <path class="cls-1" d="M12.17,25.35c-2.05,0-3.72,1.67-3.72,3.72s1.67,3.73,3.72,3.73,3.73-1.67,3.73-3.73-1.67-3.72-3.73-3.72Zm0,5.63c-1.05,0-1.91-.86-1.91-1.91s.86-1.91,1.91-1.91,1.91,.86,1.91,1.91-.86,1.91-1.91,1.91Z"/>
      <path class="cls-1" d="M23.44,25.35c-2.06,0-3.73,1.67-3.73,3.72s1.67,3.73,3.73,3.73,3.72-1.67,3.72-3.73-1.67-3.72-3.72-3.72Zm0,5.63c-1.05,0-1.91-.86-1.91-1.91s.86-1.91,1.91-1.91,1.91,.86,1.91,1.91-.86,1.91-1.91,1.91Z"/>
      <g>
        <path class="cls-1" d="M66.59,36.45v2.14c-.24,.21-.56,.34-.91,.34h-.9v-.5H1.82v.5H.91c-.1,0-.19-.01-.28-.03-.08-.02-.16-.04-.23-.07-.08-.03-.15-.07-.22-.11-.06-.04-.12-.08-.18-.13v-2.14c.24-.21,.56-.34,.91-.34h.91v.5h62.96v-.5h.9c.35,0,.67,.13,.91,.34Z"/>
        <path class="cls-1" d="M.91,38.43c-.5,0-.91-.41-.91-.91v1.07c.06,.05,.12,.09,.18,.13,.07,.04,.14,.08,.22,.11,.07,.03,.15,.05,.23,.07,.09,.02,.18,.03,.28,.03h.91v-.5H.91Zm0,0c-.5,0-.91-.41-.91-.91v1.07c.06,.05,.12,.09,.18,.13,.07,.04,.14,.08,.22,.11,.07,.03,.15,.05,.23,.07,.09,.02,.18,.03,.28,.03h.91v-.5H.91Zm0-2.82c-.33,0-.64,.08-.91,.24v1.67c0-.5,.41-.91,.91-.91h.91v-1H.91Zm0,2.82c-.5,0-.91-.41-.91-.91v1.67c.27,.16,.58,.24,.91,.24h.91v-1H.91Zm64.77,0h-.9v1h.9c.33,0,.64-.08,.91-.23v-1.68c0,.5-.4,.91-.91,.91Zm0-2.82h-.9v1h.9c.51,0,.91,.41,.91,.91v-1.67c-.27-.16-.58-.24-.91-.24ZM.91,38.43c-.5,0-.91-.41-.91-.91v1.07c.06,.05,.12,.09,.18,.13,.07,.04,.14,.08,.22,.11,.07,.03,.15,.05,.23,.07,.09,.02,.18,.03,.28,.03h.91v-.5H.91Zm0,0c-.5,0-.91-.41-.91-.91v1.07c.06,.05,.12,.09,.18,.13,.07,.04,.14,.08,.22,.11,.07,.03,.15,.05,.23,.07,.09,.02,.18,.03,.28,.03h.91v-.5H.91Z"/>
      </g>
    </g>
  </g>
</svg>