<?xml version="1.0" encoding="UTF-8"?>
<svg id="Warstwa_2" data-name="Warstwa 2" xmlns="http://www.w3.org/2000/svg" xmlns:xlink="http://www.w3.org/1999/xlink" viewBox="0 0 66.59 66.59">
  <defs>
    <style>
      .cls-1 {
        fill: url(#Gradient_bez_nazwy_72);
      }
    </style>
    <linearGradient id="Gradient_bez_nazwy_72" data-name="Gradient bez nazwy 72" x1="-17.02" y1="33.29" x2="83.9" y2="33.29" gradientUnits="userSpaceOnUse">
      <stop offset="0" stop-color="#f15c66"/>
      <stop offset="1" stop-color="#46339b"/>
      <stop offset="1" stop-color="#a855f1"/>
    </linearGradient>
  </defs>
  <g id="Warstwa_1-2" data-name="Warstwa 1">
    <path class="cls-1" d="M41.25,60.05c0,.5-.41,.91-.91,.91h-14.09c-.5,0-.9-.41-.9-.91s.4-.91,.9-.91h14.09c.5,0,.91,.41,.91,.91Zm-.91-6.54h-14.09c-.5,0-.9,.41-.9,.91s.4,.91,.9,.91h14.09c.5,0,.91-.41,.91-.91s-.41-.91-.91-.91ZM15.9,29.07c0,2.06-1.67,3.73-3.73,3.73s-3.72-1.67-3.72-3.73,1.67-3.72,3.72-3.72,3.73,1.67,3.73,3.72Zm-1.82,0c0-1.05-.86-1.91-1.91-1.91s-1.91,.86-1.91,1.91,.86,1.91,1.91,1.91,1.91-.86,1.91-1.91Zm13.08,0c0,2.06-1.67,3.73-3.72,3.73s-3.73-1.67-3.73-3.73,1.67-3.72,3.73-3.72,3.72,1.67,3.72,3.72Zm-1.81,0c0-1.05-.86-1.91-1.91-1.91s-1.91,.86-1.91,1.91,.86,1.91,1.91,1.91,1.91-.86,1.91-1.91Zm41.24-4.01v22.11c0,3.72-3.03,6.75-6.75,6.75h-11.55v11.77c0,.5-.41,.9-.91,.9H19.21c-.5,0-.9-.4-.9-.9v-11.77H6.75c-3.72,0-6.75-3.03-6.75-6.75V25.06c0-3.72,3.03-6.75,6.75-6.75h5.92V7.95c0-.5,.41-.91,.91-.91h4.73V.91c0-.5,.4-.91,.9-.91h28.17c.5,0,.91,.41,.91,.91V7.04h4.72c.5,0,.91,.41,.91,.91v10.36h5.92c3.72,0,6.75,3.03,6.75,6.75Zm-18.3-6.75h3.81V8.86h-3.81v9.45Zm-28.17,0h26.35V1.82H20.12V18.31Zm-5.63,0h3.82V8.86h-3.82v9.45Zm31.98,28.57H20.12v17.9h26.35v-17.9Zm18.31-8.45H1.82v8.74c0,2.72,2.21,4.93,4.93,4.93h11.56v-5.22h-3.32c-.5,0-.91-.41-.91-.91s.41-.91,.91-.91H51.6c.5,0,.91,.41,.91,.91s-.41,.91-.91,.91h-3.31v5.22h11.55c2.72,0,4.94-2.21,4.94-4.93v-8.74Zm0-13.37c0-2.72-2.22-4.94-4.94-4.94h-10.78c-.1,.19-.24,.36-.4,.5-.34,.32-.78,.5-1.28,.5s-.94-.18-1.28-.5c-.16-.14-.3-.31-.4-.5H20.89c-.1,.19-.24,.37-.4,.5-.34,.32-.79,.5-1.28,.5s-.93-.18-1.27-.5c-.16-.13-.3-.3-.39-.5H6.75c-2.72,0-4.93,2.22-4.93,4.94v11.55h62.96v-11.55Z"/>
  </g>
</svg>