<?xml version="1.0" encoding="UTF-8"?>
<svg id="Warstwa_2" data-name="Warstwa 2" xmlns="http://www.w3.org/2000/svg" viewBox="0 0 50.23 73.87">
  <defs>
    <style>
      .cls-1 {
        fill: #e4effa;
      }
    </style>
  </defs>
  <g id="Warstwa_1-2" data-name="Warstwa 1">
    <g>
      <g>
        <path class="cls-1" d="M50.23,6.6v60.67c0,3.64-2.96,6.6-6.6,6.6H6.6c-3.64,0-6.6-2.96-6.6-6.6V6.6C0,2.96,2.96,0,6.6,0H43.63c3.64,0,6.6,2.96,6.6,6.6ZM1.48,67.27c0,2.82,2.3,5.12,5.12,5.12H43.63c2.82,0,5.12-2.3,5.12-5.12V6.6c0-2.82-2.3-5.12-5.12-5.12H6.6C3.78,1.48,1.48,3.78,1.48,6.6v60.67Z"/>
        <path class="cls-1" d="M44.32,6.65V62.36c0,.41-.33,.74-.74,.74H6.65c-.41,0-.74-.33-.74-.74V6.65c0-.41,.33-.74,.74-.74H43.58c.41,0,.74,.33,.74,.74Zm-1.48,54.97V7.39H7.39V61.62H42.85Z"/>
        <path class="cls-1" d="M25.12,70.25c-1.48,0-2.68-1.2-2.68-2.68s1.2-2.68,2.68-2.68,2.68,1.2,2.68,2.68-1.2,2.68-2.68,2.68Zm0-4.39c-.95,0-1.71,.77-1.71,1.71s.77,1.71,1.71,1.71,1.71-.77,1.71-1.71-.77-1.71-1.71-1.71Z"/>
      </g>
      <path class="cls-1" d="M38.32,27.53H12.2c-.41,0-.74-.33-.74-.74s.33-.74,.74-.74h26.12c.41,0,.74,.33,.74,.74s-.33,.74-.74,.74Z"/>
      <path class="cls-1" d="M38.32,34.02H12.2c-.41,0-.74-.33-.74-.74s.33-.74,.74-.74h26.12c.41,0,.74,.33,.74,.74s-.33,.74-.74,.74Z"/>
      <path class="cls-1" d="M38.32,40.5H12.2c-.41,0-.74-.33-.74-.74s.33-.74,.74-.74h26.12c.41,0,.74,.33,.74,.74s-.33,.74-.74,.74Z"/>
    </g>
  </g>
</svg>