<?xml version="1.0" encoding="UTF-8"?>
<svg id="Warstwa_2" data-name="Warstwa 2" xmlns="http://www.w3.org/2000/svg" viewBox="0 0 142.73 234.13">
  <defs>
    <style>
      .cls-1 {
        fill: #fff;
      }
    </style>
  </defs>
  <g id="Warstwa_1-2" data-name="Warstwa 1">
    <g>
      <path class="cls-1" d="M107.39,117.57c0,64.28-16.01,116.57-35.7,116.57s-35.7-52.29-35.7-116.57S52.01,1,71.7,1s35.7,52.29,35.7,116.57Zm-70.39,0c0,63.72,15.56,115.57,34.7,115.57s34.7-51.84,34.7-115.57S90.83,2,71.7,2,37,53.84,37,117.57Z"/>
      <path class="cls-1" d="M71.39,116.57c0,64.28-16.01,116.57-35.7,116.57S0,180.84,0,116.57,16.01,0,35.7,0s35.7,52.29,35.7,116.57Zm-70.39,0c0,63.72,15.56,115.57,34.7,115.57s34.7-51.84,34.7-115.57S54.83,1,35.7,1,1,52.84,1,116.57Z"/>
      <path class="cls-1" d="M142.73,116.64c0,64.27-16.01,116.57-35.7,116.57s-35.7-52.29-35.7-116.57S87.35,.08,107.03,.08s35.7,52.29,35.7,116.57Zm-70.39,0c0,63.72,15.57,115.57,34.7,115.57s34.7-51.84,34.7-115.57S126.17,1.08,107.03,1.08s-34.7,51.84-34.7,115.57Z"/>
    </g>
  </g>
</svg>