<?xml version="1.0" encoding="UTF-8"?>
<svg id="Warstwa_2" data-name="Warstwa 2" xmlns="http://www.w3.org/2000/svg" viewBox="0 0 234.06 106.73">
  <defs>
    <style>
      .cls-1 {
        fill: #fff;
      }
    </style>
  </defs>
  <g id="Warstwa_1-2" data-name="Warstwa 1">
    <g>
      <path class="cls-1" d="M117.49,106.73C53.22,106.73,.92,90.72,.92,71.03S53.22,35.34,117.49,35.34s116.57,16.01,116.57,35.7-52.29,35.7-116.57,35.7Zm0-70.39C53.77,36.34,1.92,51.9,1.92,71.03s51.84,34.7,115.57,34.7,115.57-15.56,115.57-34.7-51.84-34.7-115.57-34.7Z"/>
      <path class="cls-1" d="M116.57,71.39C52.29,71.39,0,55.38,0,35.7S52.29,0,116.57,0s116.57,16.01,116.57,35.7-52.29,35.7-116.57,35.7Zm0-70.39C52.84,1,1,16.56,1,35.7s51.84,34.7,115.57,34.7,115.57-15.56,115.57-34.7S180.29,1,116.57,1Z"/>
    </g>
  </g>
</svg>