<?xml version="1.0" encoding="UTF-8"?>
<svg id="Warstwa_2" data-name="Warstwa 2" xmlns="http://www.w3.org/2000/svg" xmlns:xlink="http://www.w3.org/1999/xlink" viewBox="0 0 156.76 58.84">
  <defs>
    <style>
      .cls-1 {
        fill: #fff;
      }

      .cls-2 {
        fill: url(#Gradient_bez_nazwy_57);
      }
    </style>
    <linearGradient id="Gradient_bez_nazwy_57" data-name="Gradient bez nazwy 57" x1="-1.72" y1="35.06" x2="60.48" y2="23.77" gradientUnits="userSpaceOnUse">
      <stop offset="0" stop-color="#e92773"/>
      <stop offset="1" stop-color="#5e36a4"/>
    </linearGradient>
  </defs>
  <g id="Warstwa_1-2" data-name="Warstwa 1">
    <g id="logo">
      <path class="cls-2" d="M50.78,29.42c5.01-2.85,8.11-8.26,7.97-14.06-.1-4.13-1.8-8-4.78-10.89-2.98-2.88-6.9-4.47-11.05-4.47H15.84C11.69,0,7.77,1.59,4.79,4.47,1.8,7.36,.1,11.22,0,15.36c-.14,5.8,2.96,11.21,7.97,14.06C2.97,32.26-.13,37.68,0,43.48c.1,4.13,1.8,8,4.78,10.89,2.98,2.88,6.9,4.47,11.05,4.47h27.08c4.15,0,8.07-1.59,11.05-4.47,2.99-2.89,4.69-6.76,4.78-10.89,.14-5.8-2.96-11.21-7.97-14.06Zm-7.85-25.24c3.06,0,5.96,1.2,8.17,3.37,2.22,2.18,3.46,5.05,3.48,8.09,.02,2.78-.96,5.48-2.77,7.6-1.78,2.08-4.23,3.47-6.92,3.91-1.75,0-3.41-.76-4.56-2.07L22.76,4.18h20.17Zm8.16,47.12c-2.22,2.16-5.11,3.36-8.15,3.36h-1.65s0,.02,0,.02h-9.65l.02-.02H15.73c-6.37,0-11.56-5.19-11.56-11.56,0-5.49,4.49-10.52,10.24-11.46h1.37c.92,0,1.79,.4,2.39,1.1l9.21,10.84c.8,.98,2.28,1.05,3.17,.16h0c.78-.78,.84-2.03,.14-2.88l-9.58-11.26c-1.29-1.6-3.2-2.51-5.25-2.51h-1.45c-2.72-.45-5.26-1.82-7.17-3.86-1.98-2.12-3.07-4.78-3.07-7.49,0-6.37,5.18-11.56,11.56-11.56,.99,0,1.93,.43,2.57,1.19l20.28,23.83c1.36,1.6,3.35,2.52,5.45,2.52h.98c2.66,.46,5.09,1.86,6.85,3.94,1.79,2.12,2.76,4.81,2.72,7.59-.04,3.03-1.28,5.89-3.5,8.06Z"/>
      <g>
        <path class="cls-1" d="M88.17,6.37V29.33h-4.84V6.37h4.84Z"/>
        <path class="cls-1" d="M100.9,29.66c-1.85,0-3.46-.28-4.83-.85-1.37-.56-2.44-1.41-3.21-2.53-.77-1.12-1.17-2.51-1.21-4.16h4.68c.06,.76,.29,1.4,.68,1.92,.39,.52,.91,.91,1.57,1.16,.66,.26,1.41,.39,2.27,.39s1.54-.12,2.15-.35c.61-.24,1.08-.57,1.42-.99,.33-.43,.5-.92,.5-1.49,0-.51-.15-.95-.45-1.29-.3-.35-.74-.65-1.33-.89-.58-.25-1.29-.47-2.12-.66l-2.51-.62c-1.93-.46-3.46-1.2-4.58-2.21-1.12-1.01-1.68-2.37-1.68-4.06,0-1.39,.38-2.6,1.13-3.64,.76-1.04,1.79-1.85,3.1-2.43,1.31-.58,2.8-.87,4.48-.87s3.19,.29,4.46,.88c1.27,.59,2.26,1.4,2.97,2.43,.71,1.04,1.08,2.23,1.1,3.59h-4.67c-.08-.89-.46-1.59-1.15-2.1-.68-.5-1.61-.76-2.77-.76-.78,0-1.45,.11-2,.33-.55,.22-.97,.53-1.26,.92-.29,.39-.43,.84-.43,1.34,0,.53,.16,.98,.49,1.35,.33,.36,.77,.66,1.32,.89,.55,.23,1.15,.42,1.81,.58l2.05,.51c1,.23,1.92,.53,2.76,.9,.84,.38,1.57,.83,2.2,1.38,.62,.54,1.1,1.18,1.44,1.92,.34,.73,.51,1.58,.51,2.53,0,1.41-.35,2.63-1.06,3.66-.7,1.03-1.72,1.83-3.04,2.39s-2.93,.84-4.81,.84Z"/>
        <path class="cls-1" d="M113.92,29.33V6.37h4.84v10.12h.31l8.26-10.12h5.81l-8.51,10.28,8.61,12.68h-5.81l-6.29-9.43-2.39,2.91v6.52h-4.84Z"/>
        <path class="cls-1" d="M148.85,6.37h-6.26l-7.92,22.96h5.19l1.7-5.24h8.3l1.7,5.24h5.18l-7.91-22.96Zm-6.05,13.93l2.83-8.69h.18l2.83,8.69h-5.84Z"/>
      </g>
      <g>
        <path class="cls-1" d="M88.02,51.17c-.91,0-1.72-.23-2.43-.7-.71-.46-1.26-1.13-1.66-1.99-.4-.87-.6-1.9-.6-3.1s.2-2.25,.61-3.12c.41-.86,.97-1.52,1.67-1.97,.71-.45,1.51-.68,2.41-.68,.7,0,1.26,.12,1.69,.35,.42,.23,.75,.5,.99,.81,.24,.31,.42,.58,.55,.81h.13v-5.55h2.16v14.93h-2.11v-1.74h-.18c-.13,.23-.31,.5-.56,.81-.25,.31-.58,.58-1.01,.81-.42,.23-.98,.35-1.66,.35Zm.47-1.85c.63,0,1.16-.17,1.59-.5,.43-.33,.76-.8,.99-1.39,.22-.59,.34-1.28,.34-2.06s-.11-1.46-.33-2.05c-.22-.58-.55-1.04-.98-1.36-.43-.32-.97-.49-1.6-.49s-1.2,.17-1.63,.51c-.43,.34-.76,.81-.98,1.39-.22,.59-.33,1.25-.33,1.99s.11,1.42,.33,2.02c.22,.6,.55,1.07,.99,1.42,.44,.35,.98,.52,1.63,.52Z"/>
        <path class="cls-1" d="M100.96,51.18c-1.1,0-2.04-.24-2.85-.71-.8-.47-1.42-1.14-1.85-2.01-.43-.87-.65-1.88-.65-3.03s.21-2.16,.64-3.04c.42-.88,1.02-1.56,1.79-2.05,.77-.49,1.68-.74,2.72-.74,.63,0,1.25,.1,1.84,.31,.59,.21,1.13,.53,1.6,.98,.47,.45,.85,1.03,1.13,1.74,.28,.72,.42,1.58,.42,2.59v.78h-8.91v-1.63h7.79l-1.01,.54c0-.69-.11-1.3-.32-1.82-.21-.53-.53-.94-.96-1.24-.42-.3-.95-.45-1.58-.45s-1.16,.15-1.61,.45c-.44,.3-.78,.7-1.02,1.19-.23,.49-.35,1.04-.35,1.62v1.11c0,.77,.13,1.42,.4,1.95,.27,.53,.64,.94,1.12,1.22,.48,.28,1.03,.42,1.67,.42,.41,0,.79-.06,1.13-.18,.34-.12,.63-.3,.88-.54,.25-.24,.43-.54,.56-.89l2.06,.39c-.17,.6-.46,1.13-.88,1.58-.42,.45-.95,.81-1.59,1.06-.64,.25-1.36,.38-2.18,.38Z"/>
        <path class="cls-1" d="M116.18,42.49l-1.97,.34c-.13-.37-.36-.72-.71-1.03-.34-.31-.86-.47-1.54-.47-.61,0-1.13,.14-1.54,.42-.41,.28-.62,.63-.62,1.06,0,.37,.14,.68,.42,.91,.28,.23,.72,.42,1.33,.56l1.79,.4c1.02,.23,1.79,.6,2.3,1.1,.51,.5,.76,1.14,.76,1.92,0,.67-.19,1.27-.58,1.8-.39,.52-.93,.94-1.61,1.23-.69,.3-1.48,.45-2.39,.45-1.26,0-2.28-.27-3.07-.81-.79-.54-1.27-1.3-1.45-2.29l2.09-.32c.13,.55,.41,.96,.82,1.24,.41,.28,.94,.42,1.6,.42,.71,0,1.28-.15,1.71-.45,.43-.3,.65-.66,.65-1.09,0-.71-.53-1.19-1.58-1.43l-1.89-.42c-1.05-.24-1.82-.62-2.32-1.14-.5-.52-.75-1.17-.75-1.96,0-.66,.19-1.24,.56-1.74,.37-.5,.88-.89,1.53-1.17,.65-.28,1.39-.42,2.23-.42,1.22,0,2.17,.26,2.86,.79,.69,.53,1.15,1.23,1.38,2.09Z"/>
        <path class="cls-1" d="M119.53,38.02c-.38,0-.7-.13-.97-.38-.27-.25-.4-.56-.4-.91s.13-.67,.4-.92c.27-.25,.59-.38,.97-.38s.7,.13,.97,.38c.27,.25,.41,.56,.41,.92s-.14,.66-.41,.91c-.27,.25-.59,.38-.97,.38Zm-1.09,12.93v-11.2h2.16v11.2h-2.16Z"/>
        <path class="cls-1" d="M128.28,55.38c-1.34,0-2.39-.25-3.16-.75-.77-.5-1.3-1.1-1.59-1.78l1.86-.77c.13,.21,.31,.44,.54,.68,.22,.24,.53,.44,.91,.61,.38,.17,.87,.25,1.47,.25,.82,0,1.5-.2,2.04-.6,.54-.4,.81-1.03,.81-1.91v-2.19h-.15c-.12,.23-.3,.5-.55,.79-.25,.29-.58,.54-1.01,.76-.43,.21-.99,.32-1.67,.32-.88,0-1.68-.21-2.38-.63-.71-.42-1.27-1.03-1.68-1.84-.42-.81-.63-1.81-.63-3s.21-2.21,.62-3.06c.41-.85,.97-1.5,1.68-1.96,.71-.45,1.51-.68,2.42-.68,.69,0,1.26,.12,1.69,.35,.43,.23,.77,.5,1.01,.81,.24,.31,.43,.58,.56,.81h.16v-1.82h2.11v11.46c0,.96-.22,1.75-.67,2.37-.44,.61-1.05,1.07-1.81,1.37-.76,.3-1.62,.45-2.58,.45Zm-.02-6.41c.94,0,1.67-.33,2.17-.98,.5-.65,.76-1.56,.76-2.71,0-.75-.11-1.42-.33-1.99-.22-.57-.55-1.02-.98-1.34-.43-.32-.97-.49-1.61-.49s-1.2,.17-1.64,.51c-.44,.34-.77,.8-.99,1.37-.22,.58-.33,1.22-.33,1.94s.11,1.37,.33,1.93c.22,.56,.55,.99,1,1.3,.44,.31,.99,.46,1.63,.46Z"/>
        <path class="cls-1" d="M138.49,44.31v6.64h-2.16v-11.2h2.1v1.84h.15c.25-.61,.65-1.09,1.19-1.45,.54-.36,1.24-.54,2.08-.54,.76,0,1.43,.16,2,.48,.57,.32,1.02,.79,1.33,1.42,.32,.63,.48,1.41,.48,2.34v7.12h-2.16v-6.86c0-.81-.21-1.44-.64-1.91-.43-.46-1.01-.7-1.74-.7-.5,0-.95,.11-1.35,.34-.4,.22-.71,.54-.94,.96-.23,.41-.34,.92-.34,1.52Z"/>
      </g>
    </g>
  </g>
</svg>