<?xml version="1.0" encoding="UTF-8"?>
<svg id="Warstwa_2" data-name="Warstwa 2" xmlns="http://www.w3.org/2000/svg" xmlns:xlink="http://www.w3.org/1999/xlink" viewBox="0 0 3514.25 960.21">
  <defs>
    <style>
      .cls-1 {
        fill: url(#linear-gradient);
      }

      .cls-2 {
        fill: url(#linear-gradient-8);
      }

      .cls-3 {
        fill: url(#linear-gradient-9);
      }

      .cls-4 {
        fill: url(#linear-gradient-3);
      }

      .cls-5 {
        fill: url(#linear-gradient-4);
      }

      .cls-6 {
        fill: url(#linear-gradient-2);
      }

      .cls-7 {
        fill: url(#linear-gradient-6);
      }

      .cls-8 {
        fill: url(#linear-gradient-7);
      }

      .cls-9 {
        fill: url(#linear-gradient-5);
      }

      .cls-10 {
        fill: url(#linear-gradient-41);
      }

      .cls-11 {
        fill: url(#linear-gradient-40);
      }

      .cls-12 {
        fill: url(#linear-gradient-43);
      }

      .cls-13 {
        fill: url(#linear-gradient-42);
      }

      .cls-14 {
        fill: url(#linear-gradient-44);
      }

      .cls-15 {
        fill: url(#linear-gradient-14);
      }

      .cls-16 {
        fill: url(#linear-gradient-18);
      }

      .cls-17 {
        fill: url(#linear-gradient-22);
      }

      .cls-18 {
        fill: url(#linear-gradient-20);
      }

      .cls-19 {
        fill: url(#linear-gradient-21);
      }

      .cls-20 {
        fill: url(#linear-gradient-23);
      }

      .cls-21 {
        fill: url(#linear-gradient-15);
      }

      .cls-22 {
        fill: url(#linear-gradient-19);
      }

      .cls-23 {
        fill: url(#linear-gradient-16);
      }

      .cls-24 {
        fill: url(#linear-gradient-17);
      }

      .cls-25 {
        fill: url(#linear-gradient-13);
      }

      .cls-26 {
        fill: url(#linear-gradient-12);
      }

      .cls-27 {
        fill: url(#linear-gradient-10);
      }

      .cls-28 {
        fill: url(#linear-gradient-11);
      }

      .cls-29 {
        fill: url(#linear-gradient-27);
      }

      .cls-30 {
        fill: url(#linear-gradient-24);
      }

      .cls-31 {
        fill: url(#linear-gradient-26);
      }

      .cls-32 {
        fill: url(#linear-gradient-38);
      }

      .cls-33 {
        fill: url(#linear-gradient-35);
      }

      .cls-34 {
        fill: url(#linear-gradient-37);
      }

      .cls-35 {
        fill: url(#linear-gradient-34);
      }

      .cls-36 {
        fill: url(#linear-gradient-39);
      }

      .cls-37 {
        fill: url(#linear-gradient-36);
      }

      .cls-38 {
        fill: url(#linear-gradient-25);
      }

      .cls-39 {
        fill: url(#linear-gradient-28);
      }

      .cls-40 {
        fill: url(#linear-gradient-29);
      }

      .cls-41 {
        fill: url(#linear-gradient-33);
      }

      .cls-42 {
        fill: url(#linear-gradient-30);
      }

      .cls-43 {
        fill: url(#linear-gradient-32);
      }

      .cls-44 {
        fill: url(#linear-gradient-31);
      }
    </style>
    <linearGradient id="linear-gradient" x1="3130" y1="633.91" x2="-136.15" y2="576.29" gradientTransform="translate(3284.47 1376.69) rotate(178.4) scale(1 1.59)" gradientUnits="userSpaceOnUse">
      <stop offset=".25" stop-color="#ffc2ff"/>
      <stop offset=".53" stop-color="#ffd5ff"/>
      <stop offset="1" stop-color="#fff1ff"/>
    </linearGradient>
    <linearGradient id="linear-gradient-2" x1="3127.68" y1="619.42" x2="-135.01" y2="561.86" xlink:href="#linear-gradient"/>
    <linearGradient id="linear-gradient-3" x1="3125.74" y1="604.49" x2="-136.41" y2="546.94" xlink:href="#linear-gradient"/>
    <linearGradient id="linear-gradient-4" x1="3123.63" y1="591.58" x2="-139.01" y2="534.02" xlink:href="#linear-gradient"/>
    <linearGradient id="linear-gradient-5" x1="3121.52" y1="581.56" x2="-141.99" y2="523.99" xlink:href="#linear-gradient"/>
    <linearGradient id="linear-gradient-6" x1="3119.27" y1="571.57" x2="-145.4" y2="513.98" xlink:href="#linear-gradient"/>
    <linearGradient id="linear-gradient-7" x1="3117.43" y1="562.79" x2="-148.46" y2="505.17" xlink:href="#linear-gradient"/>
    <linearGradient id="linear-gradient-8" x1="3115.99" y1="554.61" x2="-151.09" y2="496.97" xlink:href="#linear-gradient"/>
    <linearGradient id="linear-gradient-9" x1="3115.86" y1="545.88" x2="-153.08" y2="488.21" xlink:href="#linear-gradient"/>
    <linearGradient id="linear-gradient-10" x1="3116.59" y1="536.42" x2="-153.87" y2="478.72" xlink:href="#linear-gradient"/>
    <linearGradient id="linear-gradient-11" x1="3116.01" y1="525.5" x2="-153.24" y2="467.83" xlink:href="#linear-gradient"/>
    <linearGradient id="linear-gradient-12" x1="3115.19" y1="515.07" x2="-153.34" y2="457.41" xlink:href="#linear-gradient"/>
    <linearGradient id="linear-gradient-13" x1="3114.22" y1="503.95" x2="-153.43" y2="446.31" xlink:href="#linear-gradient"/>
    <linearGradient id="linear-gradient-14" x1="3113.17" y1="490.63" x2="-152.96" y2="433.01" xlink:href="#linear-gradient"/>
    <linearGradient id="linear-gradient-15" x1="3112.16" y1="477.49" x2="-152.1" y2="419.9" xlink:href="#linear-gradient"/>
    <linearGradient id="linear-gradient-16" x1="3111.38" y1="462.79" x2="-150.97" y2="405.24" xlink:href="#linear-gradient"/>
    <linearGradient id="linear-gradient-17" x1="3110.82" y1="443.32" x2="-149.57" y2="385.8" xlink:href="#linear-gradient"/>
    <linearGradient id="linear-gradient-18" x1="3110.61" y1="422.39" x2="-148.22" y2="364.89" xlink:href="#linear-gradient"/>
    <linearGradient id="linear-gradient-19" x1="3110.71" y1="400.99" x2="-146.96" y2="343.52" xlink:href="#linear-gradient"/>
    <linearGradient id="linear-gradient-20" x1="3111.19" y1="374.21" x2="-145.76" y2="316.75" xlink:href="#linear-gradient"/>
    <linearGradient id="linear-gradient-21" x1="3111.34" y1="352.31" x2="-144.95" y2="294.86" xlink:href="#linear-gradient"/>
    <linearGradient id="linear-gradient-22" x1="3111.33" y1="339.51" x2="-144.61" y2="282.07" xlink:href="#linear-gradient"/>
    <linearGradient id="linear-gradient-23" x1="3248.86" y1="822.69" x2="-263.99" y2="760.72" xlink:href="#linear-gradient"/>
    <linearGradient id="linear-gradient-24" x1="3248.01" y1="822.03" x2="-263.21" y2="760.08" xlink:href="#linear-gradient"/>
    <linearGradient id="linear-gradient-25" x1="3245.92" y1="820.94" x2="-261.25" y2="759.07" xlink:href="#linear-gradient"/>
    <linearGradient id="linear-gradient-26" x1="3242.44" y1="819.79" x2="-258.01" y2="758.04" xlink:href="#linear-gradient"/>
    <linearGradient id="linear-gradient-27" x1="3238.1" y1="818.3" x2="-254.04" y2="756.69" xlink:href="#linear-gradient"/>
    <linearGradient id="linear-gradient-28" x1="3232.38" y1="822.29" x2="-249.05" y2="760.87" xlink:href="#linear-gradient"/>
    <linearGradient id="linear-gradient-29" x1="3225.85" y1="819.46" x2="-243.19" y2="758.26" xlink:href="#linear-gradient"/>
    <linearGradient id="linear-gradient-30" x1="3219.56" y1="816.59" x2="-237.62" y2="755.6" xlink:href="#linear-gradient"/>
    <linearGradient id="linear-gradient-31" x1="3211.69" y1="812.28" x2="-230.69" y2="751.55" xlink:href="#linear-gradient"/>
    <linearGradient id="linear-gradient-32" x1="3203.3" y1="807.68" x2="-223.35" y2="747.23" xlink:href="#linear-gradient"/>
    <linearGradient id="linear-gradient-33" x1="3194.52" y1="802.5" x2="-215.68" y2="742.34" xlink:href="#linear-gradient"/>
    <linearGradient id="linear-gradient-34" x1="3186.15" y1="796.76" x2="-208.3" y2="736.87" xlink:href="#linear-gradient"/>
    <linearGradient id="linear-gradient-35" x1="3177.15" y1="789.72" x2="-200.28" y2="730.13" xlink:href="#linear-gradient"/>
    <linearGradient id="linear-gradient-36" x1="3167.74" y1="779.02" x2="-192.69" y2="719.74" xlink:href="#linear-gradient"/>
    <linearGradient id="linear-gradient-37" x1="3159.33" y1="764.75" x2="-184.41" y2="705.77" xlink:href="#linear-gradient"/>
    <linearGradient id="linear-gradient-38" x1="3153.46" y1="751.27" x2="-176.73" y2="692.52" xlink:href="#linear-gradient"/>
    <linearGradient id="linear-gradient-39" x1="3149" y1="737.14" x2="-168.72" y2="678.61" xlink:href="#linear-gradient"/>
    <linearGradient id="linear-gradient-40" x1="3145.79" y1="721.73" x2="-161.08" y2="663.39" xlink:href="#linear-gradient"/>
    <linearGradient id="linear-gradient-41" x1="3143.32" y1="706.71" x2="-154.97" y2="648.52" xlink:href="#linear-gradient"/>
    <linearGradient id="linear-gradient-42" x1="3139.87" y1="689.08" x2="-148.79" y2="631.07" xlink:href="#linear-gradient"/>
    <linearGradient id="linear-gradient-43" x1="3134.46" y1="670.34" x2="-143.86" y2="612.5" xlink:href="#linear-gradient"/>
    <linearGradient id="linear-gradient-44" x1="3132.63" y1="653.5" x2="-140.68" y2="595.76" xlink:href="#linear-gradient"/>
  </defs>
  <g id="Layer_1" data-name="Layer 1">
    <g>
      <path class="cls-1" d="M129.96,586.29l-.29-.96c42.64-12.67,59.35-27.3,77.73-68.06,16.03-35.54,34.25-55.22,62.89-67.92,74.56-33.07,150.18-26.44,230.24-19.43,5.48,.48,10.97,.96,16.47,1.43,120.34,10.25,244.87,10.44,365.29,10.62,38.91,.06,79.14,.12,118.53,.52,195.35,1.99,392.4-13.31,582.96-28.11,84.34-6.55,171.56-13.33,257.49-18.51,82.62-4.99,169.05-4.16,256.91,2.47,58.35,4.4,117.47-2.2,186.06-20.77,109.46-29.63,193.26-43.95,271.72-46.43,94.46-2.98,184.1,11.86,273.98,45.39,205.61,76.7,385.46,121.91,566.02,142.3l-.11,.99c-180.64-20.4-360.57-65.63-566.26-142.36-89.76-33.48-179.26-48.31-273.6-45.33-78.38,2.48-162.11,16.78-271.49,46.39-68.7,18.6-127.93,25.21-186.39,20.8-87.81-6.62-174.21-7.46-256.78-2.47-85.92,5.19-173.13,11.96-257.47,18.51-190.58,14.8-387.65,30.11-583.04,28.11-39.39-.4-79.62-.46-118.53-.52-120.45-.18-245-.38-365.38-10.63-5.5-.47-10.99-.95-16.47-1.43-79.93-7-155.43-13.61-229.75,19.35-28.39,12.59-46.47,32.13-62.39,67.42-18.53,41.09-35.38,55.84-78.36,68.61Z"/>
      <path class="cls-6" d="M132.83,605.62l-.26-.97c46.12-12.19,55.14-27.51,74.45-70.02l.75-1.65c14.82-32.65,23.77-52.35,54.1-65.67,80.42-35.33,162.63-27.62,249.67-19.45,4.47,.42,8.94,.84,13.42,1.25,155.36,14.36,315.7,14.55,480,13.43,180.3-1.23,362.49-17.36,538.68-32.97,103.73-9.19,211-18.69,316.52-25.02,72.84-4.37,152.38-3.49,243.18,2.69,50.71,3.45,105.41-1.85,172.16-16.69,81.46-18.11,147.78-28.21,208.72-31.79,74.7-4.39,142.87,.97,208.39,16.39,72.33,17.03,145.88,36.84,217.02,56.01,157.65,42.48,320.67,86.41,485.76,104.44l-.11,.99c-165.16-18.04-328.22-61.98-485.91-104.47-71.13-19.17-144.67-38.98-216.99-56.01-65.42-15.4-133.49-20.75-208.1-16.37-60.88,3.58-127.16,13.68-208.56,31.77-66.84,14.86-121.64,20.17-172.44,16.71-90.75-6.18-170.26-7.06-243.05-2.69-105.51,6.33-212.77,15.83-316.5,25.01-176.21,15.61-358.42,31.75-538.76,32.97-164.32,1.12-324.69,.93-480.09-13.44-4.48-.41-8.95-.83-13.42-1.25-86.91-8.15-168.99-15.85-249.17,19.37-29.98,13.17-38.87,32.74-53.59,65.17l-.75,1.65c-19.46,42.83-28.55,58.27-75.11,70.58Z"/>
      <path class="cls-4" d="M135.34,624.89l-.23-.97c46.43-10.99,56.81-24.14,73.44-70.61,12.53-35.01,19.88-52.49,49.69-66.96,37.03-17.98,78.57-27.27,126.99-28.42,43.24-1.02,88.21,4.4,131.7,9.65,7.64,.92,15.3,1.84,22.96,2.74,144.52,16.84,305.78,22.91,479.31,18.05,166.32-4.66,335.03-22.94,498.18-40.63,116.43-12.62,236.82-25.67,354.98-33.59,76.81-5.15,155.4-4.38,233.6,2.29,54.1,4.61,107.97-3.52,162.99-13.01,78.01-13.45,149.72-19.33,219.26-17.96,75.35,1.48,146.78,11.39,218.38,30.28,190.14,50.18,440.5,111.3,690.78,138.73l-.11,.99c-250.34-27.43-500.74-88.56-690.92-138.75-71.52-18.88-142.87-28.77-218.14-30.25-69.46-1.36-141.13,4.51-219.07,17.95-55.09,9.5-109.02,17.64-163.24,13.02-78.14-6.67-156.69-7.44-233.45-2.29-118.15,7.93-238.53,20.97-354.94,33.59-163.17,17.69-331.9,35.97-498.26,40.63-173.57,4.86-334.89-1.21-479.45-18.06-7.66-.89-15.32-1.82-22.96-2.74-43.45-5.24-88.38-10.66-131.56-9.64-48.27,1.15-89.68,10.41-126.58,28.32-29.47,14.3-36.75,31.64-49.19,66.4-8.29,23.15-14.76,37.72-25.25,48.4-10.25,10.43-24.42,17.05-48.9,22.85Z"/>
      <path class="cls-5" d="M137.99,644.15l-.22-.98c46.59-10.52,63.18-25.89,77.17-71.52,11.56-37.69,24.88-56.3,49.16-68.68,87.73-44.73,177.82-30.11,273.21-14.64,8.86,1.44,18.02,2.92,27.06,4.34,164.9,25.8,326.94,34.5,481.64,25.83,147.61-8.26,297.86-28.9,443.17-48.86,122.67-16.85,249.52-34.27,373.84-44.1,75.01-5.93,153.65-6.09,240.42-.5,50.68,3.26,102.4-3.22,152.42-9.5,6.64-.83,13.26-1.66,19.88-2.47,165.33-20.2,320.38,12.13,463.3,50.08,225.23,59.8,460.77,89.47,661.47,110.6l-.11,.99c-200.74-21.13-436.32-50.8-661.62-110.63-241.68-64.17-365.32-61.98-462.92-50.06-6.62,.81-13.25,1.64-19.88,2.47-50.06,6.28-101.82,12.77-152.61,9.5-86.72-5.59-165.31-5.42-240.28,.5-124.29,9.82-251.13,27.24-373.79,44.09-145.33,19.96-295.61,40.6-443.26,48.87-38.68,2.17-77.85,3.25-117.38,3.25-118.63,0-240.74-9.73-364.47-29.09-9.05-1.42-18.21-2.9-27.07-4.34-95.22-15.44-185.15-30.03-272.59,14.55-24,12.24-37.19,30.69-48.66,68.08-14.13,46.06-30.87,61.58-77.91,72.2Z"/>
      <path class="cls-9" d="M140.57,662.27l-.21-.98c49.03-10.5,69.56-28.19,84.48-72.78,11.67-34.88,23.66-57.78,50.41-71.61,95.42-49.36,192.49-28.78,295.27-7,8.06,1.71,16.14,3.42,24.25,5.1,82.85,17.2,163.9,28.89,240.89,34.73,83.3,6.32,164.49,6,241.32-.95,130.35-11.79,263.48-34.42,392.22-56.3,120.15-20.42,244.39-41.54,366.04-53.78,95.52-9.61,194.08-7.99,259.9-5.94,46.28,1.45,94.65-2.67,141.42-6.66,18.38-1.56,37.38-3.18,55.84-4.42,113.53-7.62,226.09,20.34,334.94,47.38,51.31,12.75,104.37,25.92,156.51,35.08,252.36,44.28,443.61,71.38,620.12,87.86l-.09,1c-176.53-16.49-367.81-43.59-620.2-87.88-52.18-9.16-105.26-22.34-156.58-35.09-108.78-27.02-221.26-54.96-334.63-47.35-18.46,1.24-37.45,2.86-55.82,4.42-46.8,3.99-95.21,8.11-141.54,6.66-65.8-2.05-164.31-3.68-259.77,5.93-121.61,12.24-245.84,33.35-365.97,53.77-128.76,21.89-261.9,44.52-392.3,56.31-76.88,6.96-158.13,7.27-241.48,.95-77.03-5.84-158.12-17.53-241.02-34.75-8.11-1.68-16.19-3.4-24.25-5.1-102.59-21.74-199.5-42.28-294.6,6.91-26.45,13.68-38.33,36.41-49.92,71.04-15.06,45-35.77,62.85-85.22,73.44Z"/>
      <path class="cls-7" d="M143.23,681.74l-.11-.99c43.05-4.76,77.02-31.17,95.67-74.37,15.26-35.36,28.14-61.43,55.08-75.02,105.06-53.01,209.34-25.12,319.74,4.42,6.91,1.85,13.84,3.7,20.8,5.54,83.73,22.16,164.53,37.03,240.16,44.19,83.85,7.94,164.73,6.76,240.39-3.52,106.48-14.47,215.65-38.06,321.23-60.89,114.26-24.7,232.42-50.24,347.89-64.39,98.95-12.13,200.17-14.88,294.82-16.05,36.15-.44,73.14-2.27,108.91-4.03,44.07-2.17,89.65-4.42,133.61-4.06,107.21,.87,216.43,30.15,322.05,58.47,64.65,17.33,131.5,35.26,197.47,46.59,154.52,26.55,358.61,58.96,566.96,74.02l-.07,1c-208.4-15.06-412.52-47.48-567.06-74.03-66.01-11.34-132.89-29.27-197.56-46.61-105.56-28.3-214.71-57.57-321.8-58.43-43.93-.36-89.49,1.89-133.55,4.06-35.78,1.76-72.78,3.59-108.95,4.03-94.62,1.16-195.81,3.91-294.71,16.04-115.42,14.15-233.55,39.69-347.79,64.38-105.6,22.83-214.8,46.43-321.31,60.9-75.73,10.29-156.69,11.47-240.61,3.53-75.69-7.17-156.54-22.05-240.32-44.22-6.96-1.84-13.9-3.7-20.81-5.55-110.21-29.48-214.31-57.33-319.03-4.49-26.63,13.44-39.44,39.37-54.61,74.53-18.79,43.54-53.06,70.16-96.48,74.96Z"/>
      <path class="cls-8" d="M145.54,699.83l-.12-.99c22.12-2.61,42.45-10.01,60.41-21.99,19.51-13.01,35.73-31.14,48.23-53.91,1.32-2.41,2.63-4.8,3.91-7.16,16.92-31.04,31.54-57.84,58.46-71.05,109.11-53.55,214.16-21.38,325.38,12.69,12.04,3.69,24.49,7.5,36.89,11.19,86.49,25.7,164.01,42.11,236.98,50.17,85.54,9.44,163.04,7.33,236.91-6.44,85.17-15.88,172.72-39.96,257.38-63.26,101.01-27.79,205.46-56.53,307.7-71.95,99.4-14.99,211.94-24.55,344.05-29.24,15.89-.56,32.17-1.21,47.91-1.84,82.57-3.3,167.95-6.71,249.24,.07,110.36,9.2,225.14,42.17,336.15,74.04,66.69,19.15,135.66,38.96,202.66,53.29,173.12,37.03,349.22,49.04,513.73,56.51l-.04,1c-164.56-7.47-340.71-19.49-513.9-56.54-67.04-14.34-136.02-34.15-202.73-53.31-110.96-31.86-225.69-64.81-335.95-74.01-81.22-6.77-166.57-3.37-249.11-.07-15.74,.63-32.02,1.28-47.91,1.84-132.08,4.68-244.58,14.24-343.94,29.23-102.19,15.41-206.6,44.14-307.58,71.92-84.69,23.3-172.26,47.39-257.47,63.28-73.97,13.79-151.56,15.9-237.21,6.45-73.03-8.06-150.6-24.48-237.15-50.2-12.4-3.69-24.85-7.5-36.9-11.19-111.03-34-215.9-66.12-324.65-12.75-26.64,13.07-41.18,39.75-58.03,70.63-1.29,2.36-2.59,4.75-3.91,7.16-12.57,22.91-28.91,41.16-48.55,54.26-18.1,12.06-38.57,19.52-60.85,22.15Z"/>
      <path class="cls-2" d="M147.5,717.75l-.2-.98c56.58-11.42,95.78-35.99,123.38-77.31,3.04-4.56,6.04-9.15,8.93-13.59,18.47-28.32,35.91-55.07,63.05-67.55,112.39-51.65,218.94-16.31,331.75,21.11,18.75,6.22,38.15,12.65,57.54,18.66,71.92,22.28,149.37,44.33,228.48,54.75,84.34,11.11,159.19,7.19,228.83-11.99,59.96-16.51,121.74-38.1,181.49-58.98,89.81-31.39,182.68-63.84,273.83-80.87,116.12-21.7,246.52-36.53,398.66-45.33,117.52-6.8,242.78-10.49,362.51,8.45,107.8,17.05,219.95,51.6,328.42,85,70.99,21.86,144.39,44.47,215.36,61.75,138.59,33.75,283.21,35.31,423.08,36.82,13.97,.15,27.94,.3,41.9,.48v1c-13.97-.18-27.94-.33-41.91-.48-139.92-1.51-284.6-3.07-423.3-36.85-71-17.29-144.42-39.9-215.42-61.77-108.43-33.39-220.55-67.92-328.28-84.97-119.64-18.93-244.83-15.24-362.29-8.44-152.1,8.8-282.46,23.63-398.53,45.32-91.07,17.02-183.91,49.46-273.69,80.83-59.76,20.88-121.56,42.48-181.55,59-69.77,19.21-144.75,23.14-229.23,12.01-79.19-10.43-156.69-32.5-228.65-54.79-19.4-6.01-38.79-12.44-57.55-18.66-112.62-37.35-218.99-72.63-331.02-21.15-26.88,12.35-44.24,38.99-62.62,67.19-2.9,4.44-5.89,9.04-8.94,13.6-27.75,41.56-67.16,66.26-124.01,77.74Z"/>
      <path class="cls-3" d="M148.14,736.41l-.24-.97c54.49-13.49,97.02-37.45,130.02-73.23,5.39-5.85,10.84-11.99,16.61-18.5,23.88-26.93,50.95-57.45,78.51-70.23,52.27-24.23,109.71-30.78,175.6-20.03,58.89,9.61,119.55,31.96,178.22,53.58,22.6,8.33,45.96,16.94,69.1,24.79,63.71,21.62,139,45.03,214.35,54.79,78.28,10.13,147.89,4.47,212.82-17.31,48.89-16.4,99.11-39.77,147.67-62.38,64.5-30.02,131.2-61.06,196.83-76.93,156.09-37.72,325.23-54.41,455.14-64.74,162.3-12.9,310.91-5.25,441.69,22.74,101.55,21.73,206.16,57.2,307.33,91.49,72.3,24.51,147.05,49.85,219.23,69.61,112.84,30.89,231.69,25.97,346.63,21.2,26.02-1.08,52.92-2.19,79.31-2.87l.03,1c-26.38,.68-53.28,1.79-79.3,2.87-115.01,4.77-233.94,9.7-346.93-21.24-72.21-19.77-146.98-45.12-219.29-69.63-101.14-34.29-205.73-69.74-307.22-91.46-130.69-27.97-279.19-35.61-441.4-22.72-129.88,10.32-298.97,27-454.99,64.71-65.53,15.84-132.18,46.86-196.64,76.86-48.59,22.62-98.84,46-147.78,62.42-65.08,21.83-134.84,27.51-213.27,17.35-75.44-9.77-150.78-33.2-214.54-54.83-23.15-7.85-46.52-16.47-69.12-24.8-58.62-21.6-119.24-43.94-178.04-53.53-66.6-10.86-122.21-4.52-175.02,19.95-27.37,12.69-54.36,43.12-78.18,69.98-5.77,6.51-11.22,12.66-16.62,18.51-33.14,35.93-75.83,59.98-130.52,73.52Z"/>
      <path class="cls-27" d="M147.85,753.89l-.22-.97c59.94-13.6,109.39-38.56,146.98-74.2,6.96-6.6,13.94-13.54,21.33-20.89,27.32-27.16,55.57-55.24,85.92-69.31,53.7-24.9,114.52-30.09,185.94-15.86,63.06,12.57,126.37,38.27,187.6,63.13,26.76,10.87,52.04,21.13,77.26,30.34,53.62,19.59,124.52,43.16,197.44,51.59,73.6,8.52,138.32,.56,197.87-24.31,36.66-15.31,73.07-38.34,108.28-60.61,47.54-30.07,96.7-61.16,147.47-73.99,53.97-13.64,110.71-22.38,165.59-30.83,24.65-3.8,50.14-7.73,74.96-12.04,9.84-1.71,19.69-3.43,29.54-5.15,75.43-13.18,153.44-26.82,230.21-34.9,79.87-8.41,162.15-2.32,241.72,3.57,8.77,.65,17.53,1.3,26.28,1.93,83.21,5.98,169.26,12.17,251.83,30.38,101.39,22.37,205.2,63.23,305.59,102.75,59.71,23.51,121.46,47.81,180.8,67.35,100.41,33.06,207.46,22.24,310.99,11.77,31.84-3.22,64.75-6.55,96.97-8.55l.06,1c-32.2,2-65.11,5.33-96.93,8.54-103.63,10.48-210.79,21.31-311.4-11.82-59.37-19.55-121.13-43.86-180.85-67.37-100.36-39.51-204.13-80.36-305.44-102.71-82.5-18.2-168.51-24.38-251.69-30.36-8.75-.63-17.51-1.28-26.28-1.93-79.52-5.89-161.76-11.97-241.54-3.57-76.74,8.08-154.72,21.71-230.14,34.89-9.86,1.72-19.71,3.44-29.54,5.15-24.84,4.31-50.33,8.24-74.98,12.04-54.85,8.45-111.57,17.19-165.49,30.82-50.62,12.79-99.71,43.84-147.18,73.86-35.24,22.29-71.69,45.34-108.42,60.69-59.7,24.94-124.59,32.91-198.37,24.38-73.02-8.45-143.99-32.04-197.67-51.65-25.24-9.22-50.52-19.49-77.29-30.36-61.18-24.84-124.45-50.53-187.41-63.08-71.2-14.19-131.82-9.03-185.32,15.78-30.19,14-58.38,42.02-85.64,69.11-7.4,7.35-14.39,14.3-21.35,20.9-37.72,35.76-87.33,60.81-147.45,74.45Z"/>
      <path class="cls-28" d="M149.08,774.41l-.32-.95c55.63-18.85,107.35-54.71,157.38-89.39,41.09-28.49,83.58-57.94,127.34-77.12,53.36-23.38,114.41-26.89,186.66-10.75,63.75,14.25,127.93,41.54,190,67.94,32.06,13.63,62.34,26.51,92.19,37.52,115.66,42.65,249.45,77.89,364.72,15.89,26.59-14.3,51.92-36.34,76.41-57.66,32.13-27.96,65.35-56.88,101.72-68.48,49.34-15.74,103.36-24.09,155.61-32.16,28.37-4.38,57.7-8.91,85.84-14.57,22.54-4.53,45.62-9.39,67.94-14.09,75.62-15.92,153.81-32.38,229.82-40.15,109.73-11.21,223.72,.33,324.29,10.5,17.24,1.74,34.85,3.4,51.88,5,76.49,7.2,155.59,14.63,230.25,32.72,88.92,21.54,178.92,65.3,265.97,107.62,52.83,25.69,107.46,52.25,159.81,72.63,41.99,16.35,89.02,23.3,143.78,21.26,48.87-1.83,99.33-10.51,148.13-18.9,35.98-6.19,73.18-12.58,109.58-16.22l.1,1c-36.37,3.63-73.55,10.03-109.51,16.21-97.62,16.79-198.57,34.14-292.45-2.41-52.39-20.4-107.04-46.97-159.88-72.66-87-42.3-176.96-86.04-265.77-107.55-74.58-18.07-153.65-25.5-230.1-32.69-17.03-1.6-34.64-3.26-51.88-5-100.52-10.17-214.46-21.7-324.08-10.5-75.96,7.76-154.12,24.22-229.71,40.13-22.32,4.7-45.4,9.56-67.95,14.09-28.17,5.66-57.51,10.19-85.89,14.58-52.21,8.07-106.19,16.41-155.46,32.12-36.17,11.54-69.32,40.39-101.37,68.29-24.53,21.35-49.9,43.43-76.59,57.78-44.95,24.17-92.69,33.61-141.05,33.61-76.05,0-153.65-23.33-224.48-49.45-29.87-11.01-60.17-23.9-92.23-37.54-62.03-26.38-126.17-53.66-189.83-67.89-72.03-16.1-132.88-12.6-186.04,10.69-43.67,19.13-86.12,48.56-127.17,77.02-50.08,34.72-101.87,70.62-157.63,89.51Z"/>
      <path class="cls-26" d="M150.36,792.52l-.29-.96c59.57-18.33,115.01-54.24,168.62-88.97,45.01-29.16,91.56-59.31,139.83-78.42,52.43-20.76,112.06-22.82,182.31-6.3,62.07,14.59,124.66,41.5,185.2,67.52,36.14,15.53,70.27,30.2,103.87,42.21,3.82,1.37,7.67,2.75,11.55,4.14,53.68,19.27,114.53,41.1,173.42,47.94,67.66,7.86,121.67-5.46,165.1-40.69,16.69-13.54,31.91-32.7,46.64-51.24,24.25-30.53,49.33-62.09,82.06-70.29,40.97-10.27,85.28-18.12,128.14-25.71,36.56-6.47,74.37-13.17,110.56-21.42,21.8-4.97,44.07-10.24,65.6-15.33,84.53-20,171.93-40.68,257.14-49.51,113.4-11.75,231.6,.76,345.91,12.86,8.74,.93,17.48,1.85,26.21,2.76,15.1,1.58,30.48,3.13,45.36,4.62,84.34,8.49,171.55,17.26,255.54,36.73,80.46,18.65,165.12,42.62,239.1,91.38,17.37,11.45,34.71,25.78,51.48,39.64,26.16,21.62,53.2,43.98,80.76,55.66,40.91,17.33,86.94,23.98,140.72,20.3,48.02-3.28,97.74-14.29,145.83-24.95,38.63-8.56,78.58-17.41,117.59-22.26l.12,.99c-38.97,4.84-78.89,13.69-117.5,22.25-48.12,10.66-97.89,21.69-145.98,24.97-53.95,3.68-100.12-2.98-141.18-20.38-27.69-11.73-54.79-34.14-81-55.81-16.75-13.85-34.07-28.17-51.39-39.58-73.85-48.67-158.4-72.61-238.77-91.24-83.94-19.45-171.11-28.22-255.42-36.71-14.88-1.5-30.26-3.04-45.36-4.63-8.73-.91-17.46-1.84-26.21-2.76-114.26-12.09-232.41-24.59-345.7-12.86-85.15,8.82-172.52,29.5-257.02,49.49-21.54,5.1-43.81,10.37-65.61,15.33-36.21,8.25-74.03,14.95-110.6,21.43-42.84,7.59-87.13,15.43-128.07,25.69-32.4,8.12-57.37,39.55-81.52,69.95-14.76,18.58-30.02,37.79-46.79,51.39-43.65,35.42-97.9,48.79-165.84,40.91-59-6.85-119.9-28.71-173.64-47.99-3.88-1.39-7.73-2.77-11.55-4.14-33.63-12.02-67.78-26.7-103.93-42.24-60.5-26-123.05-52.89-185.04-67.46-70.04-16.47-129.48-14.42-181.71,6.25-48.18,19.07-94.68,49.2-139.65,78.33-53.67,34.76-109.17,70.71-168.87,89.08Z"/>
      <path class="cls-25" d="M151.79,810.63l-.26-.97c63.38-16.88,122.11-53.35,178.91-88.61,47.96-29.78,97.56-60.58,149.14-78.86,114.64-40.62,238.27,12.93,357.83,64.72,38.8,16.81,75.44,32.68,111.56,45.32,9.58,3.35,19.39,6.91,29.78,10.67,51.1,18.51,109.02,39.49,164.34,45.13,63.94,6.52,112.03-8.94,147-47.28,11.54-12.65,21.28-29.92,31.59-48.21,18.02-31.96,36.66-65,65.77-71.83,35.43-8.31,73.52-15.06,110.35-21.59,40.62-7.2,82.63-14.65,122.75-24.4,22.41-5.44,45.29-11.22,67.42-16.8,89.41-22.57,181.87-45.9,272.3-55.06,128.33-13,261.97,2.18,391.21,16.86,7.31,.83,14.62,1.66,21.92,2.49,22.24,2.51,44.95,4.84,66.91,7.09,80.81,8.28,164.38,16.85,244.29,36.54,70.6,17.4,144.76,40.5,208.8,91.32,14.4,11.43,28.18,25.4,42.77,40.19,22.54,22.86,45.84,46.49,71.58,59.92,84.68,44.16,177.43,17.85,267.13-7.6,47.94-13.6,97.51-27.67,144.35-30.19l.05,1c-46.73,2.52-96.25,16.57-144.13,30.15-54.75,15.53-110.64,31.39-165.18,31.39-35.01,0-69.44-6.53-102.69-23.86-25.88-13.5-49.24-37.19-71.83-60.1-14.57-14.77-28.32-28.73-42.67-40.11-63.89-50.7-137.93-73.76-208.42-91.13-79.85-19.67-163.38-28.24-244.15-36.51-21.96-2.25-44.67-4.58-66.92-7.09-7.3-.83-14.61-1.66-21.93-2.49-129.19-14.68-262.77-29.85-390.99-16.86-90.36,9.16-182.78,32.48-272.16,55.03-22.13,5.59-45.02,11.36-67.43,16.81-40.15,9.75-82.17,17.21-122.81,24.41-36.82,6.53-74.89,13.28-110.3,21.58-28.69,6.73-47.22,39.58-65.13,71.35-10.34,18.34-20.11,35.66-31.73,48.39-35.2,38.59-83.56,54.16-147.84,47.61-55.44-5.66-113.42-26.66-164.58-45.19-10.39-3.76-20.2-7.32-29.77-10.67-36.16-12.65-72.82-28.53-111.63-45.34-119.38-51.71-242.82-105.19-357.09-64.69-51.48,18.24-101.03,49.01-148.95,78.76-56.86,35.3-115.65,71.81-179.18,88.73Z"/>
      <path class="cls-15" d="M1177.07,833.95c-8.66,0-17.65-.47-27.01-1.41-55.51-5.58-113.4-26.44-164.47-44.84-9.35-3.37-18.18-6.55-26.78-9.56-35.45-12.41-71.53-27.79-109.73-44.07-118.06-50.33-240.15-102.38-351.59-68.4-55.24,16.85-108.81,48.19-160.61,78.5-58.43,34.19-118.86,69.55-183.5,85.69l-.24-.97c64.5-16.11,124.86-51.43,183.23-85.58,51.85-30.34,105.47-61.72,160.83-78.6,50.04-15.26,107.06-14.35,174.33,2.78,59.48,15.15,119.7,40.82,177.94,65.65,38.19,16.28,74.25,31.66,109.67,44.05,8.6,3.01,17.44,6.19,26.79,9.56,51.02,18.38,108.85,39.21,164.23,44.79,64.25,6.46,111.7-9.3,145.06-48.2,10.9-12.71,19.51-30.19,28.62-48.69,15.84-32.17,32.22-65.44,61.78-72.25,32.92-7.59,67.65-14.09,101.24-20.37,40.8-7.63,82.99-15.53,123.44-25.6,20.61-5.13,41.65-10.52,62-15.74,93.23-23.89,189.63-48.6,284.17-58.49,141.55-14.81,288.69,3.8,430.99,21.8l9.53,1.21c26.12,3.3,52.72,6.3,78.45,9.19,78,8.78,158.66,17.87,237.19,36.7,75.25,18.05,133.3,47.96,177.47,91.44,10.03,9.88,20.1,21.04,29.83,31.83,23.92,26.52,48.65,53.95,77.38,68.09,86.7,42.69,180.37,15.03,270.95-11.72,50.07-14.79,101.85-30.07,151.04-32.74l.05,1c-49.08,2.66-100.8,17.93-150.81,32.7-90.77,26.8-184.63,54.52-271.67,11.66-28.9-14.23-53.7-41.72-77.68-68.32-9.72-10.78-19.78-21.93-29.79-31.79-44.04-43.35-101.94-73.18-177-91.18-78.47-18.82-159.09-27.9-237.07-36.68-25.73-2.9-52.34-5.89-78.46-9.2l-9.53-1.21c-142.24-17.99-289.32-36.6-430.76-21.8-94.46,9.88-190.83,34.58-284.03,58.47-20.35,5.22-41.4,10.61-62.01,15.74-40.48,10.08-82.68,17.97-123.5,25.61-33.58,6.28-68.3,12.78-101.2,20.36-29.1,6.71-45.37,39.76-61.11,71.72-9.14,18.56-17.77,36.1-28.76,48.9-28.72,33.49-67.8,49.95-118.91,49.96Z"/>
      <path class="cls-21" d="M1176.75,850.36c-7.19,0-14.58-.29-22.17-.88-53.39-4.12-109.25-22.08-158.53-37.93-9.13-2.94-17.75-5.71-26.33-8.39-37.12-11.61-75.5-25.9-112.63-39.72-113.88-42.4-231.65-86.25-340.28-64.83-59.66,11.76-117.6,41.86-178.95,73.72-58.96,30.62-119.92,62.28-182.94,76.46l-.22-.97c62.89-14.15,123.8-45.78,182.7-76.37,61.41-31.89,119.42-62.02,179.22-73.81,108.91-21.47,226.81,22.42,340.82,64.87,37.11,13.82,75.49,28.11,112.58,39.71,8.58,2.68,17.21,5.46,26.34,8.39,49.23,15.83,105.03,33.78,158.3,37.89,61.16,4.71,109.19-9.6,146.85-43.78,14.89-13.51,27.96-31.88,40.6-49.63,21.63-30.38,43.99-61.8,76.3-70.22,34.37-8.96,70.59-17.12,105.63-25.02,35.13-7.92,71.45-16.1,106.63-25.23,104.08-27,222.05-57.61,337.61-68.28,143.73-13.27,292.68,6.98,436.73,26.57l4.91,.67c28.38,3.86,57.36,7.19,85.38,10.42,75.71,8.71,154,17.72,229.46,38.03,56.87,15.31,109.67,45.18,152.7,86.38,6.99,6.69,13.9,13.62,21.2,20.95,28.14,28.22,57.23,57.4,89.61,71.06,96.07,40.51,199.77,12.57,300.06-14.46,45.36-12.22,88.2-23.77,130.59-29.49l.13,.99c-42.33,5.71-85.14,17.25-130.47,29.46-100.46,27.07-204.33,55.06-300.71,14.42-32.56-13.73-61.72-42.98-89.93-71.27-7.31-7.33-14.21-14.25-21.19-20.93-42.91-41.08-95.56-70.87-152.27-86.14-75.39-20.29-153.64-29.3-229.31-38.01-28.03-3.23-57.02-6.56-85.4-10.42l-4.91-.67c-143.99-19.58-292.88-39.83-436.5-26.57-115.48,10.66-233.41,41.26-337.45,68.25-35.2,9.13-71.53,17.32-106.67,25.24-35.02,7.89-71.24,16.05-105.59,25.01-31.96,8.33-54.22,39.6-75.74,69.84-12.67,17.8-25.77,36.21-40.74,49.79-33.2,30.12-74.39,44.91-125.43,44.91Z"/>
      <path class="cls-23" d="M156.22,866.01l-.18-.98c65.79-12.19,130.72-39.55,193.5-66.01,63.67-26.84,123.81-52.18,184.88-63.12,103.89-18.61,216.24,17.74,324.89,52.9,40.87,13.22,83.13,26.9,123.88,37.22,4.99,1.26,10.01,2.55,15.06,3.84,103.65,26.47,221.13,56.48,317.56-5.88,21.01-13.59,40.78-32.38,59.91-50.54,28.55-27.12,58.08-55.17,92.29-66.47,48.26-15.93,100.13-28.24,150.3-40.13,17.42-4.13,35.44-8.41,52.98-12.75,104.33-25.87,216.09-50.87,326.52-58.59,136.67-9.55,277.93,10.26,414.55,29.42l1.98,.28c28.37,3.98,57.87,6.99,86.4,9.9,72.18,7.37,146.83,14.99,213.74,38.98,42.9,15.38,85.44,47.08,126.57,77.74,44.88,33.45,91.3,68.04,138.63,81.92,98.67,28.93,202.51,6.48,302.94-15.23,44.52-9.62,90.56-19.58,135.73-25l.12,.99c-45.12,5.42-91.14,15.37-135.64,24.99-66.31,14.33-134.12,28.99-200.98,28.99-34.52,0-68.77-3.9-102.45-13.78-47.51-13.93-93.99-48.57-138.95-82.08-41.08-30.61-83.55-62.27-126.31-77.6-66.8-23.95-141.38-31.57-213.51-38.93-28.54-2.91-58.05-5.93-86.44-9.91l-1.98-.28c-136.57-19.15-277.78-38.96-414.34-29.42-110.36,7.71-222.07,32.7-326.35,58.56-17.55,4.35-35.57,8.62-52.99,12.76-50.15,11.89-102,24.19-150.22,40.11-34,11.23-63.44,39.2-91.91,66.24-19.16,18.2-38.97,37.02-60.06,50.66-96.79,62.6-214.5,32.54-318.35,6.01-5.05-1.29-10.08-2.57-15.06-3.84-40.78-10.33-83.06-24.01-123.94-37.24-108.53-35.12-220.76-71.43-324.41-52.87-60.96,10.92-121.05,36.24-184.67,63.06-62.83,26.48-127.81,53.87-193.71,66.07Z"/>
      <path class="cls-24" d="M157.38,883.89l-.14-.99c66.97-9.46,134.36-30.02,199.53-49.91,66.64-20.33,135.54-41.36,201.91-49.51,98.67-12.12,204.12,13.27,306.09,37.82,43.96,10.59,89.43,21.53,133.3,29.16,47.37,8.23,109.6,17.77,170.89,18.47,62.24,.71,117.06-7.5,167.6-25.08,35.55-12.36,70.78-34.7,104.86-56.31,30.17-19.13,61.36-38.91,92.62-51.65,75.55-30.8,157.14-53.57,249.43-69.6,75.44-13.11,159.51-21.79,257.02-26.54,114.88-5.6,224.78-3.03,326.67,7.65,114.31,11.98,221.75,34.49,319.34,66.92,42.87,14.24,86.73,38.38,129.14,61.73,50.75,27.94,103.24,56.83,154.93,69.39,100.58,24.45,206.01,5.51,307.97-12.81,45.64-8.2,92.83-16.67,139.08-21.19l.1,1c-46.21,4.51-93.38,12.98-139,21.18-67.28,12.08-136.08,24.44-204.02,24.44-35.13,0-70.01-3.3-104.36-11.65-51.83-12.6-104.37-41.52-155.18-69.49-42.37-23.32-86.18-47.44-128.97-61.65-97.52-32.4-204.89-54.9-319.13-66.87-101.83-10.67-211.69-13.24-326.51-7.64-97.47,4.75-181.5,13.43-256.9,26.53-92.22,16.02-173.74,38.77-249.23,69.54-31.17,12.71-62.33,32.46-92.46,51.57-34.13,21.64-69.41,44.01-105.07,56.41-50.66,17.62-105.59,25.85-167.94,25.13-61.36-.69-123.65-10.24-171.05-18.48-43.91-7.63-89.38-18.58-133.36-29.17-101.89-24.53-207.24-49.9-305.73-37.8-66.28,8.14-135.15,29.15-201.74,49.47-65.21,19.9-132.64,40.47-199.68,49.94Z"/>
      <path class="cls-16" d="M158.19,899.95l-.1-1c67.98-6.52,137.01-20.68,203.76-34.38,72.67-14.91,147.81-30.32,220.4-35.46,94.39-6.68,193.7,8.44,289.74,23.06,45.63,6.95,92.82,14.14,138.65,18.83,111.82,11.46,231.39,18.38,348.14-8.36,44.53-10.2,89.04-30.55,132.08-50.24,35.89-16.41,73.01-33.39,110.15-44.51,154.21-46.19,314.54-72.86,476.55-79.25,188.51-7.44,386.01,14.46,571.14,63.33,44.3,11.69,89.93,29.4,134.07,46.51,59.18,22.96,120.37,46.69,179.49,56.44,100.16,16.52,206.28,2.56,308.9-10.94,47.91-6.3,97.44-12.82,145.79-16.17l.07,1c-48.31,3.34-97.83,9.86-145.72,16.16-102.69,13.51-208.89,27.48-309.19,10.94-59.22-9.77-120.46-33.52-179.69-56.5-44.11-17.11-89.71-34.8-133.96-46.48-185.04-48.85-382.43-70.73-570.84-63.3-161.92,6.39-322.18,33.04-476.3,79.21-37.07,11.1-74.15,28.06-110.02,44.46-43.09,19.7-87.64,40.08-132.27,50.3-116.89,26.78-236.56,19.85-348.47,8.38-45.86-4.7-93.06-11.89-138.7-18.84-95.99-14.62-195.24-29.74-289.52-23.05-72.53,5.14-147.64,20.54-220.27,35.45-66.78,13.7-135.83,27.86-203.87,34.39Z"/>
      <path class="cls-22" d="M158.69,915.29l-.06-1c68.72-4.22,138.68-12.89,206.34-21.28,77.97-9.67,158.6-19.67,236.96-22.74,100.38-3.94,204.69,4.01,305.56,11.7,37.64,2.87,76.56,5.83,114.57,8.12,115.77,6.97,239.33,10.7,358.55-9.02,60.58-10.02,122.52-29.45,182.42-48.24,33.56-10.53,68.27-21.42,102.12-30.43,144.08-38.39,290.78-59.34,436.03-62.29,147.8-2.99,313.94,14.13,507.91,52.35,40.95,8.07,83.01,18.42,123.7,28.43,73.01,17.97,148.51,36.55,221.57,43.03,102.07,9.05,208.53-.19,311.49-9.11,49.42-4.29,100.52-8.72,150.52-11.08l.05,1c-49.98,2.36-101.07,6.79-150.48,11.07-103,8.93-209.51,18.17-311.66,9.11-73.14-6.48-148.67-25.07-221.72-43.05-40.67-10.01-82.73-20.36-123.65-28.42-193.9-38.21-359.95-55.33-507.7-52.33-145.17,2.94-291.79,23.88-435.79,62.25-33.83,9.01-68.53,19.9-102.08,30.42-59.93,18.8-121.9,38.24-182.55,48.27-119.32,19.74-242.95,16-358.78,9.03-38.01-2.29-76.94-5.26-114.58-8.12-100.84-7.69-205.12-15.64-305.44-11.7-78.32,3.07-158.93,13.07-236.88,22.73-67.67,8.39-137.65,17.07-206.4,21.29Z"/>
      <path class="cls-18" d="M158.92,930.96l-.03-1c73.36-2.55,148.02-7.63,220.22-12.55,77.31-5.27,157.25-10.71,235.43-13.02,96.09-2.83,194.85-.29,290.35,2.17,42,1.08,85.42,2.2,127.86,2.84,107.19,1.6,220.56-4.2,346.59-17.76,100.71-10.84,207.17-26.18,345.2-49.74,134.55-22.97,273.08-33.67,423.49-32.71,125.91,.8,260.82,9.65,424.58,27.85,32.39,3.6,65.43,7.65,97.38,11.57,90.99,11.16,185.08,22.7,276.71,25.37,100.54,2.94,203.93-2.1,303.92-6.97,54.23-2.64,110.3-5.37,165.31-6.8l.03,1c-55,1.43-111.06,4.16-165.28,6.8-100.01,4.87-203.42,9.91-303.99,6.97-91.67-2.67-185.79-14.22-276.81-25.38-31.95-3.92-64.98-7.97-97.37-11.57-245.42-27.27-538.06-48.02-847.79,4.85-138.05,23.56-244.53,38.91-345.26,49.75-126.06,13.56-239.47,19.38-346.71,17.76-42.45-.64-85.88-1.76-127.87-2.84-95.49-2.46-194.23-5-290.29-2.17-78.16,2.3-158.09,7.75-235.39,13.02-72.21,4.92-146.88,10.01-220.26,12.56Z"/>
      <path class="cls-19" d="M159.38,945.35v-1s41.9-.55,41.9-.55c514.49-6.7,1046.49-13.63,1564.59-65,235.11-23.31,473.44-13.8,703.93-4.6,39.75,1.59,80.85,3.23,121.38,4.68,191.95,6.88,387.25,3.28,576.13-.2,81.45-1.5,165.67-3.05,248.45-3.74v1c-82.77,.69-166.99,2.24-248.43,3.74-188.89,3.48-384.21,7.08-576.18,.2-40.53-1.45-81.63-3.09-121.38-4.68-230.45-9.2-468.75-18.71-703.79,4.6-518.15,51.37-1050.17,58.3-1564.68,65l-41.91,.55Z"/>
      <path class="cls-17" d="M159.87,960.21l-.02-1c125.55-2.57,253.28-4.5,376.81-6.37,409.92-6.2,833.79-12.62,1249.44-43.25,208.51-15.37,420.38-11.83,625.27-8.4,53.69,.9,109.21,1.83,163.87,2.4,195.33,2.06,393.94-2.94,586.01-7.77,83.47-2.1,169.78-4.27,254.64-5.83l.02,1c-84.86,1.56-171.17,3.73-254.64,5.83-192.08,4.83-390.68,9.82-586.05,7.77-54.66-.58-110.18-1.5-163.88-2.4-204.87-3.42-416.72-6.96-625.18,8.4-415.68,30.64-839.56,37.05-1249.5,43.25-123.52,1.87-251.25,3.8-376.8,6.37Z"/>
      <path class="cls-20" d="M1153.88,321.68c-83.42,0-181.51-13.25-267.53-67.83-7.15-4.54-13.7-9.57-20.03-14.44-13.17-10.13-25.61-19.7-43.02-25.13-44.15-13.76-90.52-11.33-135.36-8.98-10.33,.54-21.01,1.1-31.39,1.44-140.75,4.6-286.95-15.91-428.33-35.74-74.95-10.51-152.45-21.38-228.22-28.38l.09-1c75.79,7,153.3,17.88,228.27,28.39,141.34,19.82,287.5,40.33,428.16,35.73,10.36-.34,21.04-.9,31.37-1.44,44.93-2.36,91.39-4.79,135.71,9.02,17.58,5.48,30.09,15.1,43.33,25.29,6.31,4.86,12.84,9.88,19.96,14.39,116.44,73.89,255.16,71.85,349.38,63.89,65.77-5.56,132.4-27.35,196.84-48.42,46.52-15.21,94.63-30.95,141.46-40.16,114.64-22.55,235.84-14.5,353.06-6.71,29.98,1.99,60.98,4.05,91.27,5.55,82.45,4.08,163.88-6.16,248.97-31.31,69.32-20.49,143.29-51.22,239.86-99.65,90.68-45.48,174.62-73.57,256.6-85.89,87.21-13.1,173.36-8.67,263.37,13.56,53.35,13.17,107.59,30.72,160.05,47.7,105.98,34.29,215.57,69.75,326.52,72.4l-.02,1c-111.09-2.65-220.75-38.14-326.8-72.45-52.44-16.97-106.66-34.51-159.98-47.68-89.88-22.19-175.9-26.62-262.98-13.54-81.87,12.3-165.71,40.37-256.3,85.8-96.62,48.46-170.65,79.21-240.03,99.72-85.2,25.18-166.75,35.43-249.3,31.35-30.3-1.5-61.31-3.56-91.29-5.55-117.15-7.78-238.28-15.83-352.8,6.7-46.78,9.2-94.85,24.92-141.35,40.13-64.49,21.09-131.17,42.9-197.06,48.47-24.81,2.1-52.71,3.78-82.47,3.78Z"/>
      <path class="cls-30" d="M1150.62,322.1c-33.85,0-64.79-2.08-94.36-6.25-66.67-9.42-123.32-29.29-173.18-60.75-7.27-4.59-13.92-9.68-20.35-14.6-13.33-10.2-25.92-19.83-43.45-25.24-43.43-13.4-89.03-11.08-133.13-8.83-10.89,.55-22.15,1.13-33.08,1.44-148.86,4.23-303.55-16.74-453.15-37.02-65.36-8.86-132.94-18.02-199-24.94l.1-.99c66.08,6.91,133.67,16.08,199.03,24.94,149.56,20.28,304.22,41.24,452.99,37.01,10.92-.31,22.17-.88,33.06-1.44,44.19-2.24,89.88-4.57,133.48,8.88,17.7,5.46,30.36,15.15,43.76,25.4,6.42,4.91,13.05,9.98,20.28,14.55,49.74,31.38,106.26,51.21,172.79,60.61,51.92,7.33,108.13,8.18,176.87,2.67,67.59-5.42,136.03-27.25,202.21-48.37,46.44-14.81,94.46-30.13,141.21-39.38,114.24-22.59,234.89-14.37,351.56-6.43,29.86,2.03,60.75,4.14,90.93,5.67,82.28,4.19,163.57-6,248.51-31.15,69.13-20.47,142.96-51.22,239.39-99.71,90.68-45.6,174.58-73.78,256.49-86.15,87.21-13.17,173.33-8.74,263.29,13.54,53.27,13.2,107.44,30.76,159.82,47.74,106.08,34.39,215.77,69.95,326.83,72.61l-.02,1c-111.2-2.66-220.97-38.24-327.12-72.65-52.36-16.98-106.51-34.53-159.75-47.72-89.82-22.25-175.82-26.68-262.9-13.53-81.8,12.35-165.6,40.5-256.19,86.05-96.49,48.52-170.37,79.29-239.56,99.78-85.05,25.19-166.46,35.39-248.85,31.19-30.19-1.54-61.08-3.64-90.95-5.67-116.61-7.94-237.18-16.15-351.3,6.41-46.7,9.23-94.69,24.54-141.1,39.35-66.24,21.13-134.73,42.98-202.43,48.41-29.69,2.38-57.05,3.58-82.74,3.58Z"/>
      <path class="cls-38" d="M1147.6,323.1c-32.17,0-61.78-1.86-90.05-5.59-70.44-9.29-130.14-29.99-182.54-63.29-6.64-4.22-12.95-8.94-19.06-13.51-14.94-11.17-29.04-21.72-48.24-26.21-45.51-10.62-92.76-8.17-138.45-5.8-6,.31-11.98,.62-17.93,.9-158.07,7.43-321.67-14.68-479.9-36.05-55.25-7.47-112.39-15.19-168.31-21.51l.11-.99c55.93,6.32,113.07,14.04,168.33,21.51,158.18,21.37,321.75,43.47,479.71,36.05,5.95-.28,11.93-.59,17.93-.9,45.76-2.38,93.09-4.83,138.73,5.82,19.4,4.53,34.25,15.64,48.61,26.38,6.09,4.55,12.38,9.26,18.99,13.46,52.27,33.22,111.85,53.87,182.13,63.14,54.33,7.17,113.62,7.43,186.59,.82,67.67-6.13,136.11-27.64,202.28-48.44,43.93-13.81,89.36-28.09,133.57-37.47,109.17-23.17,224.4-14.77,335.83-6.65,28.91,2.11,58.79,4.28,88.01,5.86,84.84,4.58,166.24-3.97,248.84-26.16,73.42-19.72,149.71-50.47,240.1-96.78,191.64-98.18,354.11-123.2,526.81-81.13,55.12,13.43,111.15,31.62,165.34,49.22,106.01,34.42,215.63,70.02,326.57,73.06l-.03,1c-111.08-3.04-220.77-38.66-326.85-73.11-54.17-17.59-110.19-35.78-165.27-49.2-172.44-42.01-334.71-17.01-526.11,81.05-90.45,46.34-166.81,77.11-240.29,96.86-82.7,22.22-164.2,30.79-249.15,26.2-29.23-1.58-59.12-3.76-88.04-5.86-111.36-8.11-226.52-16.5-335.55,6.63-44.17,9.37-89.57,23.64-133.48,37.44-66.23,20.82-134.71,42.34-202.49,48.48-35.09,3.18-67.02,4.77-96.76,4.77Z"/>
      <path class="cls-31" d="M1151.15,323.27c-36.17,0-69.36-2.22-101.21-6.7-68.89-9.67-128.86-29.77-183.34-61.44-7.41-4.31-14.52-9.51-21.39-14.54-14.12-10.34-28.73-21.03-47.36-25.19-44.65-9.95-90.94-7.13-135.7-4.39-6.75,.41-13.73,.84-20.54,1.21-192.77,10.49-392.39-17.07-585.44-43.73-16.48-2.27-32.94-4.55-49.37-6.79l.14-.99c16.44,2.25,32.9,4.52,49.37,6.79,193,26.65,392.58,54.2,585.25,43.72,6.81-.37,13.79-.8,20.53-1.21,44.84-2.74,91.2-5.56,135.98,4.42,18.84,4.2,33.53,14.96,47.74,25.36,6.85,5.02,13.93,10.2,21.3,14.48,54.36,31.61,114.21,51.66,182.97,61.32,56.01,7.86,116.22,8.77,189.5,2.83,71.03-5.75,142.81-27.35,212.23-48.23,43.92-13.21,89.33-26.87,133.54-36.14,105.2-22.05,216.05-14.11,323.25-6.43,31.76,2.27,64.6,4.63,96.7,6.15,84.35,4,164.81-4.51,245.97-26.01,73.76-19.54,149.22-49.77,237.47-95.13,93.54-48.08,178.57-78.37,259.95-92.6,89.45-15.64,176.83-12.55,267.13,9.44,55.86,13.6,112.66,32.16,167.58,50.11,105.54,34.49,214.67,70.15,325.08,73.75l-.03,1c-110.55-3.6-219.75-39.29-325.36-73.8-54.91-17.95-111.69-36.5-167.51-50.09-90.16-21.96-177.41-25.04-266.72-9.42-81.28,14.21-166.22,44.47-259.67,92.5-88.32,45.4-163.83,75.65-237.67,95.21-81.26,21.53-161.82,30.04-246.27,26.05-32.11-1.52-64.95-3.87-96.72-6.15-107.13-7.67-217.92-15.61-322.98,6.42-44.17,9.26-89.56,22.91-133.46,36.12-69.47,20.9-141.31,42.51-212.44,48.27-31.71,2.57-60.97,3.86-88.51,3.86Z"/>
      <path class="cls-29" d="M1147.73,323.91c-38.4,0-72.95-2.21-105.53-6.67-70.07-9.6-130.8-29.62-185.67-61.22-7.34-4.23-14.44-9.3-21.3-14.21-14.65-10.49-29.81-21.33-49.01-25.37-44.67-9.4-90.88-5.89-135.58-2.49-6.79,.52-13.8,1.05-20.66,1.52-163.03,11.28-332.08-8.71-495.56-28.04-40.39-4.78-82.16-9.71-123.07-14.09l.11-.99c40.92,4.37,82.69,9.31,123.08,14.09,163.44,19.33,332.44,39.31,495.38,28.04,6.85-.47,13.87-1.01,20.65-1.52,44.76-3.4,91.05-6.92,135.86,2.51,19.41,4.08,34.65,14.99,49.39,25.54,6.84,4.9,13.92,9.96,21.21,14.16,54.75,31.53,115.37,51.52,185.31,61.09,55.24,7.56,116.24,8.66,191.97,3.44,70.24-4.84,141.29-25.46,210-45.4,48.37-14.04,98.39-28.55,147.15-37.19,112.23-19.88,230.21-11.95,344.31-4.29,23.35,1.57,47.49,3.19,71.12,4.54,83.13,4.74,162.5-3.28,242.64-24.53,72.08-19.12,146.39-49.07,233.85-94.26,94-48.57,179.07-79.32,260.07-94.01,89.91-16.31,177.37-13.6,267.35,8.28,56.92,13.84,114.81,32.92,170.8,51.38,104.89,34.57,213.34,70.32,323.05,74.66l-.04,1c-109.84-4.35-218.37-40.12-323.32-74.71-55.97-18.45-113.85-37.52-170.72-51.36-89.84-21.85-177.16-24.55-266.93-8.27-80.89,14.67-165.87,45.39-259.78,93.92-87.52,45.22-161.89,75.2-234.05,94.34-80.24,21.28-159.71,29.32-242.95,24.56-23.64-1.35-47.78-2.97-71.13-4.54-114.04-7.66-231.96-15.59-344.06,4.27-48.71,8.63-98.7,23.14-147.05,37.17-68.76,19.95-139.86,40.59-210.2,45.43-31.16,2.15-59.84,3.23-86.65,3.23Z"/>
      <path class="cls-39" d="M1143.72,325.02c-35.36,0-73.36-1.68-111.39-6.75-71.58-9.53-133.34-29.52-188.82-61.11-7.14-4.06-14.06-8.78-20.75-13.33-15.23-10.37-30.97-21.09-51.39-25.91-41.53-9.8-84.56-5.3-126.17-.95-9.9,1.04-20.14,2.11-30.1,2.95-194,16.42-395.76-7.56-590.88-30.75l-6.96-.83,.12-.99,6.96,.83c195.07,23.18,396.78,47.16,590.68,30.74,9.95-.84,20.18-1.91,30.08-2.95,41.7-4.36,84.81-8.87,126.5,.97,20.6,4.86,36.42,15.63,51.73,26.05,6.68,4.54,13.58,9.25,20.68,13.29,55.37,31.52,117.01,51.47,188.46,60.98,70.78,9.43,141.52,7.12,195.24,4.07,74.47-4.24,149.81-24.79,222.67-44.66,48.92-13.34,99.51-27.14,148.77-35.62,112.7-19.41,231-11.24,345.41-3.35,21.12,1.46,42.95,2.96,64.34,4.27,82.02,5,159.79-2.48,237.79-22.84,71.57-18.68,144.49-48.16,229.48-92.77,78.75-41.33,163.6-82.81,250.49-106.25,92.54-24.96,178.09-26.69,261.54-5.29,65.81,16.88,130.99,41.81,194.01,65.92,102.21,39.1,207.89,79.53,317.47,85.7l-.06,1c-109.73-6.17-215.49-46.63-317.77-85.76-63-24.1-128.15-49.03-193.9-65.89-83.28-21.36-168.67-19.63-261.04,5.29-86.8,23.41-171.59,64.86-250.28,106.17-85.06,44.64-158.05,74.15-229.69,92.85-78.09,20.39-155.98,27.87-238.1,22.87-21.39-1.3-43.23-2.81-64.35-4.27-114.35-7.89-232.59-16.05-345.17,3.34-49.22,8.48-99.78,22.27-148.68,35.6-72.91,19.88-148.3,40.45-222.87,44.69-24.92,1.42-53.5,2.68-84.04,2.68Z"/>
      <path class="cls-40" d="M1125.67,325.81c-100.58,0-207.31-9.06-300.33-69-3.89-2.51-7.81-5.14-11.6-7.68-18.86-12.67-38.37-25.77-64.5-30.47-38.85-6.99-78.87-1.9-117.57,3.02-15.44,1.96-31.4,3.99-46.9,5.18-178.82,13.76-359.7-1.44-560.64-21.16l.1-.99c200.89,19.71,381.72,34.91,560.47,21.16,15.48-1.19,31.42-3.22,46.85-5.18,38.78-4.93,78.87-10.02,117.87-3.01,26.33,4.74,45.93,17.9,64.88,30.63,3.78,2.54,7.7,5.17,11.58,7.67,113.4,73.07,247.39,70.35,365.59,67.96,89.43-1.81,179.5-23.77,266.61-45.01,49.2-11.99,100.08-24.4,149.76-32.84,113.24-19.24,231.58-10.78,346.03-2.59,20.38,1.46,41.45,2.97,62.11,4.29,80,5.12,157.16-2.94,235.89-24.64,68.79-18.96,141.07-48.78,227.47-93.84,73.2-38.17,159.9-80.26,248.01-103.02,91.32-23.59,175.97-24.55,258.78-2.93,65.39,17.07,130.19,41.96,192.86,66.03,101.46,38.97,206.37,79.27,315.04,86.53l-.07,1c-108.82-7.27-213.8-47.6-315.33-86.59-62.64-24.06-127.41-48.94-192.75-66-82.65-21.58-167.13-20.62-258.28,2.93-88,22.73-174.65,64.8-247.79,102.94-86.47,45.1-158.82,74.94-227.67,93.92-78.84,21.73-156.12,29.8-236.22,24.68-20.66-1.32-41.73-2.83-62.11-4.29-114.39-8.19-232.67-16.65-345.79,2.58-49.64,8.43-100.5,20.83-149.69,32.82-87.16,21.25-177.29,43.22-266.83,45.04-21.49,.44-43.51,.88-65.82,.88Z"/>
      <path class="cls-42" d="M1122.57,327.22c-44.29,0-89.29-1.29-134.07-7.37-69.95-9.49-128.17-29.53-177.99-61.28-3.32-2.12-6.68-4.32-9.93-6.46-19.85-13.02-40.37-26.48-67.8-30.89-39.35-6.32-79.76-.24-118.85,5.65-14.93,2.25-30.36,4.57-45.35,6.12-174.94,18.14-357.45,3.66-533.96-10.34l-3.87-.31,.08-1,3.87,.31c176.46,14,358.93,28.47,533.77,10.34,14.97-1.55,30.39-3.87,45.3-6.12,39.16-5.89,79.65-11.99,119.15-5.64,27.64,4.44,48.25,17.96,68.19,31.04,3.25,2.13,6.61,4.34,9.92,6.45,49.69,31.67,107.78,51.67,177.58,61.13,61.5,8.34,123.46,7.66,183.4,7l10.92-.12c98.58-1.03,197.73-23.61,293.61-45.45,45.84-10.44,93.24-21.23,139.55-29.4,111.68-19.68,228.04-10.75,340.57-2.11,20.13,1.55,40.95,3.14,61.36,4.55,77.78,5.35,153.09-2.29,230.22-23.33,67.83-18.51,138.52-47.55,222.46-91.41,77.49-40.49,161.21-81.12,248.37-104.14,91.72-24.23,176.51-25.61,259.21-4.23,67.15,17.36,133.66,43.09,197.98,67.96,100.63,38.92,204.68,79.17,312.37,87.55l-.08,1c-107.83-8.39-211.96-48.66-312.65-87.61-64.29-24.87-130.77-50.58-197.87-67.93-82.53-21.34-167.15-19.95-258.71,4.23-87.06,23-170.73,63.6-248.17,104.06-84.01,43.89-154.76,72.96-222.66,91.49-77.24,21.08-152.66,28.72-230.55,23.37-20.41-1.4-41.23-3-61.37-4.55-112.47-8.63-228.77-17.56-340.32,2.1-46.29,8.16-93.68,18.95-139.5,29.39-95.93,21.85-195.13,44.44-293.82,45.47l-10.92,.12c-16.35,.18-32.87,.36-49.47,.36Z"/>
      <path class="cls-44" d="M1115.9,330c-44.23,0-89.07-1.31-133.64-6.86-73.28-9.13-134.68-28.75-187.7-59.96-5.25-3.09-10.38-6.31-15.34-9.43-19.63-12.33-38.17-23.97-63.75-27.96-40.98-6.39-83.01,1.13-123.65,8.41-12.9,2.31-26.25,4.7-39.2,6.56-154.23,22.17-315.76,13.27-471.97,4.67-13.88-.76-27.75-1.53-41.6-2.27l.05-1c13.85,.74,27.72,1.51,41.6,2.27,156.16,8.61,317.64,17.5,471.77-4.66,12.93-1.86,26.27-4.25,39.16-6.55,40.73-7.29,82.84-14.83,123.98-8.41,25.78,4.02,44.41,15.72,64.13,28.1,4.95,3.11,10.08,6.33,15.32,9.41,52.9,31.14,114.17,50.71,187.32,59.83,64.55,8.04,129.72,7.17,192.75,6.33,5.26-.07,10.49-.14,15.71-.21,99.89-1.24,200.5-22.83,297.8-43.72,45.26-9.71,92.07-19.76,137.8-27.5,112.22-19,228.92-9.58,341.78-.48,18.66,1.51,37.96,3.06,56.89,4.46,75.34,5.57,149.46-2.48,226.57-24.6,65.13-18.68,132.6-46.94,218.77-91.63,72.37-37.53,158.23-78.91,246.33-101.31,90.78-23.08,174.82-23.8,256.94-2.19,67.35,17.72,134.07,43.73,198.6,68.88,99.81,38.91,203.02,79.14,309.72,88.9l-.09,1c-106.84-9.77-210.11-50.03-309.99-88.96-64.5-25.14-131.2-51.14-198.49-68.84-81.95-21.56-165.83-20.84-256.44,2.2-88,22.37-173.8,63.73-246.12,101.23-86.23,44.71-153.76,73-218.96,91.7-77.23,22.15-151.46,30.21-226.92,24.64-18.93-1.4-38.23-2.96-56.9-4.46-112.8-9.1-229.44-18.51-341.53,.47-45.71,7.74-92.5,17.78-137.76,27.5-97.35,20.89-198.01,42.5-298,43.74-5.22,.06-10.45,.13-15.71,.21-19.57,.26-39.35,.53-59.24,.53Z"/>
      <path class="cls-43" d="M1110.85,332.66c-50.19,0-101.33-1.09-151.94-7.54-72.09-9.18-132.67-28.23-185.17-58.25-5.02-2.87-9.95-5.86-14.71-8.75-20.22-12.26-39.31-23.84-65.66-27.24-42.64-5.51-86.18,3.62-128.29,12.45-11.21,2.35-22.8,4.78-34.06,6.86-135.87,25.05-278.7,20.96-416.83,17.01-21.74-.62-44.23-1.27-66.29-1.78l.02-1c22.06,.52,44.55,1.16,66.29,1.78,138.08,3.95,280.86,8.04,416.62-17,11.24-2.07,22.83-4.5,34.03-6.85,42.19-8.85,85.81-18,128.62-12.47,26.55,3.43,45.74,15.07,66.05,27.38,4.76,2.88,9.68,5.87,14.69,8.73,52.39,29.95,112.84,48.97,184.8,58.13,63.61,8.1,128.09,7.74,190.44,7.38,10.12-.06,20.18-.11,30.17-.13,104.09-.21,209.02-20.66,310.49-40.43,48.34-9.42,98.33-19.16,147.19-26.47,111.98-16.76,228.42-7.6,341.02,1.26,16.16,1.27,32.88,2.59,49.27,3.8,73.01,5.4,144.67-2.2,219.06-23.23,62.77-17.75,129.99-45.7,211.53-87.98,73.13-37.92,159.67-79.74,246.95-102.48,91.36-23.8,175.63-24.97,257.62-3.6,69.87,18.21,139.03,45.49,205.92,71.87,98.77,38.95,200.9,79.23,306.37,90.55l-.11,.99c-105.6-11.34-207.8-51.64-306.63-90.62-66.86-26.37-135.99-53.63-205.8-71.83-81.83-21.33-165.93-20.15-257.12,3.6-87.19,22.71-173.65,64.5-246.74,102.4-81.61,42.31-148.88,70.29-211.72,88.05-74.5,21.06-146.27,28.67-219.4,23.26-16.39-1.21-33.11-2.53-49.27-3.8-112.55-8.86-228.93-18.01-340.79-1.27-48.84,7.31-98.82,17.05-147.15,26.47-101.52,19.78-206.49,40.24-310.68,40.45-9.99,.02-20.04,.08-30.16,.13-12.79,.07-25.69,.14-38.63,.14Z"/>
      <path class="cls-41" d="M1173.54,335.84c-4.34,0-8.66-.03-12.99-.09-14.83-.2-30.09-.29-44.85-.37-121.58-.69-247.3-1.4-360.98-61.83-6.4-3.4-12.52-6.98-18.45-10.44-19.42-11.35-37.77-22.07-62.86-25.17-44.71-5.53-90.19,5.33-134.16,15.84-8.81,2.1-17.92,4.28-26.78,6.26-124.17,27.72-255.44,28.11-382.38,28.49-23.92,.07-48.66,.14-72.91,.4v-1c24.24-.26,48.98-.33,72.91-.4,126.89-.38,258.11-.77,382.17-28.47,8.85-1.98,17.96-4.15,26.77-6.25,44.06-10.52,89.63-21.41,134.52-15.86,25.3,3.13,43.73,13.9,63.25,25.3,5.92,3.46,12.03,7.03,18.41,10.42,113.46,60.31,239.05,61.02,360.52,61.71,14.76,.08,30.03,.17,44.86,.37,118.07,1.6,236.65-19.05,351.32-39.02,44.82-7.81,91.17-15.88,136.59-22.45,108.25-15.65,220.51-6.9,329.06,1.57,13.32,1.04,26.63,2.08,39.92,3.07,72.46,5.42,141.76-.5,211.88-18.09,63.71-15.99,130.73-42.44,204.87-80.88,74.69-38.72,161.77-82.12,250.11-106.98,93.55-26.33,179.01-29.14,261.27-8.59,74.88,18.71,148.85,48.29,220.39,76.91,97.35,38.93,198.01,79.19,301.78,92.26l-.12,.99c-103.89-13.08-204.62-53.37-302.03-92.32-71.51-28.6-145.45-58.17-220.26-76.86-82.09-20.51-167.38-17.7-260.76,8.58-88.25,24.84-175.27,68.21-249.92,106.91-74.21,38.47-141.29,64.96-205.08,80.96-70.22,17.62-139.63,23.55-212.19,18.12-13.29-.99-26.6-2.03-39.92-3.07-108.5-8.46-220.7-17.22-328.84-1.58-45.41,6.57-91.75,14.64-136.56,22.44-110.51,19.25-224.66,39.12-338.51,39.12Z"/>
      <path class="cls-35" d="M1171.6,339.83c-7.96,0-15.91-.08-23.87-.25-17.93-.38-36.41-.58-54.29-.77-121.16-1.29-246.45-2.62-360.61-59.58-6.72-3.35-13.13-6.92-19.33-10.37-19.37-10.78-37.67-20.97-62.77-23.52-46.89-4.76-94.3,8-140.14,20.34-6.59,1.78-13.41,3.61-20.05,5.34-115.13,30.04-237.26,34.25-355.37,38.32-22.68,.78-46.13,1.59-69.11,2.57l-.04-1c22.99-.98,46.44-1.79,69.12-2.57,118.05-4.07,240.13-8.27,355.15-38.29,6.64-1.73,13.45-3.57,20.04-5.34,45.93-12.37,93.43-25.16,140.5-20.37,25.31,2.57,43.69,12.81,63.15,23.64,6.19,3.45,12.59,7.01,19.29,10.35,113.96,56.85,239.13,58.18,360.18,59.47,17.87,.19,36.36,.39,54.3,.77,128.44,2.74,257.44-17.45,382.18-36.98,42.44-6.64,86.33-13.52,129.34-19.34,102.84-13.92,209.23-6.29,312.12,1.08,16.52,1.18,33.6,2.41,50.35,3.52,70.08,4.65,136.6-.99,203.35-17.26,61.86-15.07,126.16-39.93,196.56-76,79.3-40.62,163.97-82.36,250.66-107.09,94.22-26.88,179.9-30.08,261.93-9.79,77.82,19.25,154.65,50.37,228.95,80.47,96.06,38.92,195.4,79.16,297.6,93.95l-.14,.99c-102.32-14.81-201.71-55.07-297.83-94.01-74.27-30.09-151.07-61.2-228.81-80.43-81.86-20.25-167.37-17.05-261.42,9.78-86.61,24.71-171.23,66.41-250.48,107.01-70.47,36.11-134.84,60.99-196.78,76.08-66.85,16.29-133.46,21.94-203.65,17.28-16.76-1.11-33.84-2.34-50.36-3.52-102.84-7.37-209.17-15-311.91-1.09-43,5.82-86.88,12.69-129.32,19.33-117.06,18.33-237.87,37.24-358.49,37.24Z"/>
      <path class="cls-33" d="M1166.66,344.75c-13.97,0-27.94-.2-41.92-.63-24.89-.77-50.71-.94-75.68-1.12-116-.8-235.96-1.62-343.92-58.01-74.2-38.75-159.99-21.47-234.58-2.24-129.2,33.32-264.28,44.32-394.92,54.95l-.08-1c130.59-10.63,265.63-21.62,394.75-54.92,74.77-19.28,160.78-36.6,235.29,2.32,107.75,56.28,227.58,57.1,343.46,57.89,24.97,.17,50.8,.35,75.7,1.12,145.75,4.49,291.63-15.66,432.71-35.14,37.28-5.15,75.83-10.47,113.69-15.24,101.66-12.81,206.66-5.78,308.2,1.01,16.88,1.13,34.33,2.3,51.46,3.35,126.51,7.8,239.65-17.36,366.83-81.54,89.28-45.06,169.99-84.38,253.66-109.31,95.82-28.55,182.62-33.29,265.37-14.5,84.5,19.19,167.72,53.47,248.21,86.63,93.18,38.39,189.54,78.08,288.36,94.54l-.16,.99c-98.94-16.48-195.34-56.19-288.58-94.6-80.45-33.14-163.63-67.41-248.05-86.58-82.57-18.75-169.21-14.01-264.86,14.48-83.6,24.9-164.26,64.21-253.5,109.24-112.44,56.74-213.93,83.01-323.36,83.02-14.51,0-29.14-.46-43.98-1.38-17.13-1.06-34.59-2.22-51.47-3.35-101.5-6.79-206.45-13.81-308.01-1.02-37.86,4.77-76.4,10.09-113.68,15.24-127.6,17.62-259.12,35.78-390.96,35.78Z"/>
      <path class="cls-37" d="M85.7,361.96l-.12-.99c111.31-13.59,240.26-31.04,362.09-66.23,78.34-22.63,160.96-38.54,234.45-2,106.56,52.98,224.48,53.49,338.52,53.99,29.4,.13,59.8,.26,89.07,1.34,178.87,6.61,357.5-16.46,530.24-38.77,14.05-1.82,28.1-3.63,42.15-5.43,101.4-12.99,205.91-6.44,306.98-.11,15.37,.96,31.27,1.96,46.88,2.87,62.5,3.64,120.51-.64,177.34-13.09,55.25-12.1,111.34-32.38,171.49-62,164.83-81.18,335.28-165.12,520.32-123.99,88.49,19.67,175.66,56.01,259.96,91.16,90.98,37.93,185.05,77.15,281.13,95.58l-.19,.98c-96.18-18.45-190.3-57.69-281.33-95.64-84.26-35.13-171.38-71.45-259.79-91.1-184.7-41.06-354.99,42.8-519.67,123.91-60.22,29.66-116.39,49.97-171.72,62.08-56.93,12.47-115.02,16.75-177.61,13.11-15.61-.91-31.51-1.9-46.88-2.87-101.02-6.33-205.48-12.87-306.79,.1-14.05,1.8-28.1,3.61-42.15,5.43-152.29,19.67-309.19,39.93-466.79,39.93-21.21,0-42.39-.37-63.62-1.15-29.26-1.08-59.65-1.21-89.04-1.34-114.15-.5-232.19-1.01-338.96-54.1-73.18-36.38-155.58-20.51-233.73,2.07-121.9,35.21-250.9,52.67-362.25,66.26Z"/>
      <path class="cls-34" d="M94.86,388.5l-.17-.99c104.61-17.72,212.16-43.21,328.81-77.95,70.32-20.94,147.22-36.15,232.96-5.96,117.26,41.3,241.64,44.76,361.93,48.1,24.4,.68,49.62,1.38,74.36,2.39,196.01,7.98,392.33-14.09,582.19-35.44l19.39-2.18c110.2-12.37,223.54-6.21,333.16-.25l14.5,.79c116.27,6.28,217.73-14.64,328.96-67.83l6.49-3.11c82-39.22,166.79-79.78,252.19-104.92,46-13.54,88.43-21.63,129.72-24.73,46.37-3.48,90.1-.62,133.68,8.74,92.85,19.95,184.12,59.07,272.39,96.91,88.48,37.93,179.97,77.15,273.18,97.13l-.21,.98c-93.3-20.01-184.84-59.25-273.36-97.19-88.22-37.82-179.45-76.92-272.21-96.85-43.49-9.34-87.12-12.2-133.39-8.72-41.21,3.09-83.57,11.17-129.51,24.69-85.32,25.12-170.07,65.66-252.04,104.87l-6.49,3.11c-98.66,47.18-189.65,69-290.07,69-12.96,0-26.06-.36-39.38-1.08l-14.5-.79c-109.57-5.96-222.88-12.12-332.99,.25l-19.39,2.18c-162.67,18.29-330.11,37.11-498.04,37.12-28.1,0-56.19-.53-84.3-1.67-24.73-1.01-49.95-1.71-74.34-2.39-120.37-3.34-244.83-6.8-362.24-48.15-85.47-30.1-162.18-14.92-232.34,5.97-116.69,34.75-224.28,60.25-328.93,77.97Z"/>
      <path class="cls-32" d="M101.44,413.8l-.21-.98c103.71-22.67,205.42-56.96,303.78-90.12,42.72-14.4,78.36-22.15,112.18-24.37,39.34-2.59,75.85,2.51,111.63,15.57,114.82,41.93,242.87,43.63,366.71,45.27,35.48,.47,72.17,.96,107.44,2.43,180.15,7.5,361.14-10.09,536.17-27.1,22.37-2.17,45.5-4.42,68.25-6.58,116.37-11.04,233.79-6.48,344.08-.86,109.31,5.56,206.64-14.58,315.57-65.33l5.68-2.65c81.87-38.14,166.52-77.59,251.72-101.94,95.7-27.36,181.52-32.19,262.35-14.78,93.3,20.1,184.63,61.41,272.94,101.35,87.89,39.75,178.77,80.86,271.84,101.24l-.21,.98c-93.17-20.4-184.1-61.53-272.04-101.3-88.27-39.92-179.55-81.21-272.74-101.28-80.67-17.38-166.33-12.55-261.87,14.76-85.13,24.33-169.74,63.76-251.58,101.89l-5.68,2.65c-97.39,45.37-185.54,66.32-281.23,66.32-11.49,0-23.08-.3-34.82-.9-110.26-5.61-227.64-10.17-343.94,.86-22.75,2.16-45.88,4.41-68.24,6.58-146.51,14.24-297.22,28.88-448.1,28.88-29.42,0-58.81-.56-88.21-1.78-35.25-1.47-71.94-1.96-107.41-2.43-123.92-1.64-252.05-3.34-367.04-45.33-35.65-13.02-72.03-18.09-111.23-15.52-33.73,2.22-69.29,9.95-111.92,24.32-98.39,33.17-200.12,67.47-303.89,90.15Z"/>
      <path class="cls-36" d="M106.67,441.16l-.27-.96c61.64-17.35,123.23-41.77,182.79-65.38,30.41-12.05,61.85-24.52,92.51-35.7,39.34-14.35,75.28-22.41,109.86-24.63,37.81-2.42,74.34,2.03,111.69,13.62,119.27,37.01,245.64,38.14,367.85,39.23,37.83,.34,76.94,.68,115.03,2.11,191.17,7.16,384.38-8.97,571.24-24.57,21.89-1.83,43.78-3.65,65.67-5.45,97.39-7.97,203.9-8.54,335.2-1.79,102.01,5.25,195.71-12.97,294.88-57.31,12.2-5.46,24.68-11.1,36.75-16.55,156.55-70.74,318.43-143.89,485.89-102.2,89.62,22.32,177.06,63.62,261.62,103.56,92.39,43.64,187.93,88.77,286.93,109.5l-.21,.98c-99.11-20.75-194.7-65.9-287.15-109.57-84.51-39.92-171.9-81.2-261.43-103.49-167.13-41.61-328.85,31.47-485.24,102.14-12.07,5.45-24.55,11.09-36.75,16.55-88.28,39.48-172.26,58.27-261.58,58.28-11.17,0-22.41-.29-33.76-.88-131.25-6.75-237.72-6.18-335.07,1.79-21.89,1.79-43.78,3.62-65.67,5.45-155.45,12.98-315.33,26.32-474.76,26.32-32.24,0-64.43-.54-96.6-1.75-38.07-1.43-77.18-1.77-115-2.11-122.28-1.09-248.73-2.21-368.14-39.27-37.23-11.55-73.65-15.99-111.33-13.58-34.48,2.21-70.33,10.25-109.58,24.57-30.64,11.18-62.08,23.64-92.48,35.69-59.58,23.62-121.2,48.04-182.89,65.41Z"/>
      <path class="cls-11" d="M110.67,468.36l-.34-.94c48.33-17.22,96.53-40.26,143.14-62.54,31.66-15.13,64.4-30.78,96.21-44.08,80.45-33.64,156.53-38.78,232.61-15.71,107.21,32.52,224.47,31.85,337.86,31.21,46.28-.26,94.14-.53,140.08,1.53,200.3,8.98,401.6-6.44,596.28-21.34,27.51-2.11,55.95-4.28,83.95-6.36,100.58-7.46,206.86-8.34,315.9-2.64,103.65,5.42,196.13-11.14,291.04-52.1,15.71-6.78,31.78-13.86,47.32-20.7,153.31-67.51,311.84-137.32,475.28-86.15,79.82,24.99,157.58,62.16,232.77,98.1,100.72,48.14,204.86,97.93,314.69,118.63l-.19,.98c-109.96-20.73-214.16-70.54-314.94-118.71-75.16-35.93-152.88-73.08-232.64-98.05-163.08-51.06-321.43,18.67-474.57,86.11-15.54,6.85-31.62,13.92-47.33,20.71-83.41,36-164.96,53.18-253.83,53.18-12.41,0-24.94-.33-37.66-1-109-5.7-215.24-4.81-315.77,2.64-28,2.08-56.45,4.25-83.95,6.36-194.71,14.91-396.04,30.32-596.4,21.35-45.92-2.06-93.76-1.79-140.03-1.53-113.47,.64-230.81,1.3-338.16-31.26-39.35-11.93-77.63-16.28-117.05-13.28-37.56,2.86-75.14,12.33-114.89,28.95-31.78,13.29-64.51,28.93-96.16,44.06-46.63,22.29-94.85,45.34-143.23,62.58Z"/>
      <path class="cls-10" d="M113.86,491.45l-.39-.92c39.83-16.97,79.41-39.41,117.69-61.11,33.09-18.75,67.3-38.14,100.51-53.22,71.75-32.58,145-37.86,230.52-16.61,111.62,27.73,228.05,26.8,340.63,25.9,47.11-.38,95.83-.76,143.23,.99,211.52,7.81,425.5-7.31,632.44-21.93,26.06-1.84,52.13-3.68,78.22-5.48,104.17-7.19,207.4-8,306.81-2.4,97.33,5.48,183.92-8.88,272.5-45.17,17.22-7.06,34.76-14.43,51.73-21.55,75.8-31.85,154.19-64.78,232.85-82.01,42.39-9.28,81.36-13.36,119.12-12.45,42.44,1.02,82.25,8.25,121.71,22.11,71.44,25.09,141.13,57.85,208.52,89.54,109.04,51.27,221.79,104.28,342.09,124.2l-.16,.99c-120.43-19.95-233.25-72.99-342.35-124.29-67.37-31.67-137.03-64.43-208.42-89.5-73.46-25.8-152.06-28.95-240.29-9.63-78.58,17.21-156.92,50.12-232.68,81.95-16.96,7.13-34.51,14.5-51.73,21.56-88.72,36.35-175.45,50.73-272.94,45.24-99.37-5.59-202.56-4.78-306.69,2.4-26.08,1.8-52.15,3.64-78.22,5.48-206.96,14.62-420.96,29.74-632.54,21.93-47.38-1.75-96.08-1.36-143.19-.98-112.65,.9-229.14,1.83-340.88-25.93-85.29-21.19-158.34-15.93-229.87,16.55-33.17,15.06-67.36,34.44-100.43,53.18-38.31,21.71-77.92,44.17-117.8,61.16Z"/>
      <path class="cls-13" d="M118.09,517.09l-.42-.91c35.1-16.43,68.82-40.17,101.42-63.13,31.79-22.39,61.83-43.53,93.25-58.69,35.14-16.95,71.61-26.2,111.49-28.29,34.89-1.82,72.21,1.69,117.45,11.07,110.45,22.89,224.32,21.44,334.44,20.03,51.07-.65,103.89-1.32,155.39,.47,212.02,7.39,426.31-7.23,633.54-21.37,36.75-2.51,74.75-5.1,112.17-7.53,105.08-6.83,201.63-7.34,295.17-1.55,90.2,5.58,170.23-6.42,251.85-37.74,16.02-6.15,32.31-12.54,48.06-18.73,77.11-30.28,156.84-61.58,236.58-76.33,42.94-7.94,82.43-10.57,120.72-8.05,42.99,2.84,83.37,12.06,123.43,28.19,53.23,21.42,105.75,45.3,156.55,68.39,132.23,60.11,257.13,116.88,397.47,136.18l-.14,.99c-140.49-19.31-265.45-76.12-397.75-136.26-50.79-23.09-103.3-46.96-156.51-68.37-39.97-16.09-80.24-25.28-123.13-28.12-38.2-2.53-77.61,.1-120.47,8.03-79.64,14.73-159.33,46.02-236.39,76.28-15.75,6.19-32.04,12.58-48.07,18.73-81.76,31.38-161.92,43.39-252.27,37.81-93.49-5.78-190-5.27-295.04,1.55-37.42,2.43-75.42,5.03-112.17,7.53-207.26,14.14-421.57,28.76-633.64,21.37-51.48-1.79-104.28-1.12-155.34-.47-110.18,1.41-224.11,2.86-334.66-20.05-45.15-9.36-82.38-12.87-117.19-11.05-39.75,2.08-76.09,11.3-111.11,28.19-31.35,15.12-61.35,36.24-93.11,58.61-32.64,22.98-66.39,46.75-101.57,63.22Z"/>
      <path class="cls-12" d="M124.12,541.26l-.3-.95c38.96-12.37,55.63-27.03,90.02-62.77,27.08-28.13,52.09-52.53,84.09-66.21,77.96-33.33,153.86-26.22,231.21-15.22,104.15,14.81,211.99,13.96,316.28,13.14,53.46-.42,108.74-.85,162.66,.84,211.09,6.63,424.11-7.72,630.12-21.6,52.3-3.52,106.38-7.17,159.68-10.42,102.84-6.28,196.03-6.31,284.9-.11,78.5,5.48,149.27-4.04,222.7-29.94,7.79-2.75,15.56-5.5,23.32-8.25,86.59-30.69,168.37-59.67,252.86-72.57,45.39-6.93,87.25-8.52,127.96-4.85,45.55,4.1,88.64,14.63,131.72,32.19,35.91,14.64,71.7,29.86,106.3,44.58,151.36,64.38,294.33,125.19,454.79,143.6l-.11,.99c-160.61-18.42-303.64-79.26-455.07-143.67-34.61-14.72-70.39-29.94-106.29-44.57-42.99-17.52-85.98-28.03-131.43-32.12-40.63-3.66-82.41-2.07-127.72,4.84-84.39,12.88-166.14,41.85-252.68,72.52-7.76,2.75-15.53,5.5-23.32,8.25-73.56,25.95-144.45,35.47-223.11,29.99-88.82-6.2-181.97-6.16-284.77,.11-53.3,3.25-107.38,6.9-159.67,10.42-206.04,13.88-419.09,28.24-630.22,21.6-53.91-1.69-109.17-1.26-162.62-.84-104.33,.82-212.21,1.67-316.43-13.15-77.21-10.98-152.96-18.08-230.68,15.15-31.82,13.6-56.76,37.93-83.76,65.99-34.52,35.87-51.26,50.59-90.44,63.03Z"/>
      <path class="cls-14" d="M126.6,562.74l-.3-.95c41.79-13.13,55.87-28.31,82.72-65.19,23.22-31.9,43.8-54.35,74.61-67.65,74.3-32.07,148.97-24.7,228.03-16.9l6.89,.68c103.13,10.14,210.03,9.86,313.4,9.6,55.42-.14,112.72-.29,168.67,1.18,205.72,5.39,413.28-9.29,614-23.48,66.7-4.71,135.67-9.59,203.63-13.67,90.46-5.42,182.04-4.96,272.18,1.37,68.49,4.82,135.49-3.57,204.84-25.64,95.07-30.25,180.83-56.07,267.67-65.77,47.24-5.28,91.06-5.39,133.96-.35,47.52,5.59,92.89,17.33,138.69,35.91,98.63,40,187.71,75.5,279.26,104.95,103.71,33.37,194.27,53.67,284.99,63.91l-.11,.99c-90.79-10.24-181.41-30.56-285.19-63.95-91.58-29.46-180.68-64.98-279.33-104.98-45.72-18.54-91-30.26-138.43-35.84-42.83-5.04-86.58-4.92-133.74,.35-86.75,9.69-172.46,35.5-267.48,65.73-69.47,22.1-136.6,30.5-205.22,25.68-90.1-6.33-181.64-6.79-272.05-1.37-67.96,4.08-136.93,8.95-203.62,13.67-200.75,14.19-408.33,28.87-614.1,23.48-55.94-1.46-113.23-1.32-168.65-1.18-103.4,.26-210.32,.54-313.5-9.61l-6.89-.68c-78.93-7.79-153.47-15.15-227.54,16.82-30.6,13.21-51.07,35.55-74.2,67.32-26.99,37.08-41.15,52.33-83.23,65.55Z"/>
    </g>
  </g>
</svg>