<?xml version="1.0" encoding="UTF-8"?>
<svg id="Warstwa_2" data-name="Warstwa 2" xmlns="http://www.w3.org/2000/svg" xmlns:xlink="http://www.w3.org/1999/xlink" viewBox="0 0 64.82 53.55">
  <defs>
    <style>
      .cls-1 {
        fill: url(#Gradient_bez_nazwy_72);
      }
    </style>
    <linearGradient id="Gradient_bez_nazwy_72" data-name="Gradient bez nazwy 72" x1="-21.12" y1="26.77" x2="86.5" y2="26.77" gradientUnits="userSpaceOnUse">
      <stop offset="0" stop-color="#f15c66"/>
      <stop offset="1" stop-color="#46339b"/>
      <stop offset="1" stop-color="#a855f1"/>
    </linearGradient>
  </defs>
  <g id="Warstwa_1-2" data-name="Warstwa 1">
    <path class="cls-1" d="M64.09,.73c-.48-.47-1.11-.73-1.78-.73H2.5C1.83,0,1.2,.26,.72,.73c-.46,.49-.72,1.12-.72,1.78V51.04c0,.66,.26,1.29,.73,1.77,.48,.47,1.11,.74,1.77,.74H62.31c.66,0,1.3-.26,1.78-.74,.47-.47,.73-1.11,.73-1.77V2.51c0-.67-.26-1.3-.73-1.78Zm-.46,50.31c0,.34-.14,.67-.4,.92-.25,.25-.58,.4-.92,.4H2.5c-.34,0-.67-.15-.92-.4-.26-.25-.39-.58-.39-.92V2.51c0-.35,.13-.68,.39-.93,.25-.25,.58-.39,.92-.39H62.31c.34,0,.67,.14,.92,.39,.26,.25,.4,.58,.4,.93V51.04Zm-.05-49.81c-.34-.35-.79-.54-1.27-.54H2.5c-.48,0-.93,.19-1.27,.53-.35,.34-.54,.8-.54,1.29V51.04c0,.49,.19,.94,.54,1.27,.34,.35,.81,.55,1.27,.55H62.31c.46,0,.93-.2,1.27-.54,.35-.34,.55-.8,.55-1.28V2.51c0-.49-.2-.95-.55-1.28Zm-.45,49.81c0,.21-.09,.41-.25,.57-.16,.16-.37,.25-.57,.25H2.5c-.2,0-.41-.09-.57-.26-.16-.15-.24-.34-.24-.56V2.51c0-.22,.08-.42,.24-.58,.16-.15,.36-.24,.57-.24H62.31c.21,0,.41,.09,.57,.25,.16,.16,.25,.35,.25,.57V51.04Zm.45-49.81c-.34-.35-.79-.54-1.27-.54H2.5c-.48,0-.93,.19-1.27,.53-.35,.34-.54,.8-.54,1.29V51.04c0,.49,.19,.94,.54,1.27,.34,.35,.81,.55,1.27,.55H62.31c.46,0,.93-.2,1.27-.54,.35-.34,.55-.8,.55-1.28V2.51c0-.49-.2-.95-.55-1.28Zm-.45,49.81c0,.21-.09,.41-.25,.57-.16,.16-.37,.25-.57,.25H2.5c-.2,0-.41-.09-.57-.26-.16-.15-.24-.34-.24-.56V2.51c0-.22,.08-.42,.24-.58,.16-.15,.36-.24,.57-.24H62.31c.21,0,.41,.09,.57,.25,.16,.16,.25,.35,.25,.57V51.04Zm.45-49.81c-.34-.35-.79-.54-1.27-.54H2.5c-.48,0-.93,.19-1.27,.53-.35,.34-.54,.8-.54,1.29V51.04c0,.49,.19,.94,.54,1.27,.34,.35,.81,.55,1.27,.55H62.31c.46,0,.93-.2,1.27-.54,.35-.34,.55-.8,.55-1.28V2.51c0-.49-.2-.95-.55-1.28Zm-.45,49.81c0,.21-.09,.41-.25,.57-.16,.16-.37,.25-.57,.25H2.5c-.2,0-.41-.09-.57-.26-.16-.15-.24-.34-.24-.56V2.51c0-.22,.08-.42,.24-.58,.16-.15,.36-.24,.57-.24H62.31c.21,0,.41,.09,.57,.25,.16,.16,.25,.35,.25,.57V51.04ZM7.42,6.67V46.87H57.39V6.67H7.42ZM55.92,45.4H8.89V8.14H55.92V45.4ZM8.39,7.64V45.9H56.42V7.64H8.39ZM55.92,45.4H8.89V8.14H55.92V45.4ZM8.39,7.64V45.9H56.42V7.64H8.39ZM55.92,45.4H8.89V8.14H55.92V45.4ZM8.39,7.64V45.9H56.42V7.64H8.39ZM55.92,45.4H8.89V8.14H55.92V45.4ZM8.39,7.64V45.9H56.42V7.64H8.39ZM55.92,45.4H8.89V8.14H55.92V45.4ZM8.39,7.64V45.9H56.42V7.64H8.39ZM55.92,45.4H8.89V8.14H55.92V45.4ZM8.39,7.64V45.9H56.42V7.64H8.39ZM55.92,45.4H8.89V8.14H55.92V45.4ZM8.39,7.64V45.9H56.42V7.64H8.39ZM55.92,45.4H8.89V8.14H55.92V45.4ZM7.85,37.73l13.64-12.59,7.25,6.59,12.48-11.35,15.67,15.02v2l-15.67-14.64-12.48,11.35-7.25-6.59-13.6,12.88-.04-2.67ZM31.65,16.05c-.77-.77-1.84-1.25-3.01-1.25s-2.24,.48-3.01,1.25c-.77,.77-1.25,1.83-1.25,3.01s.48,2.24,1.25,3.01c.77,.77,1.83,1.25,3.01,1.25s2.24-.48,3.01-1.25c.77-.77,1.25-1.83,1.25-3.01s-.48-2.24-1.24-3.01h0Zm-3.01-2.65c1.56,0,2.98,.63,4,1.66,1.02,1.03,1.66,2.44,1.66,4s-.63,2.98-1.66,4c-1.02,1.02-2.44,1.66-4,1.66s-2.98-.63-4-1.66c-1.02-1.02-1.66-2.44-1.66-4s.63-2.97,1.66-4c1.02-1.03,2.44-1.66,4-1.66Z"/>
  </g>
</svg>