<?xml version="1.0" encoding="UTF-8"?>
<svg id="Warstwa_2" data-name="Warstwa 2" xmlns="http://www.w3.org/2000/svg" xmlns:xlink="http://www.w3.org/1999/xlink" viewBox="0 0 80.71 60.53">
  <defs>
    <style>
      .cls-1 {
        fill: url(#Gradient_bez_nazwy_72);
      }
    </style>
    <linearGradient id="Gradient_bez_nazwy_72" data-name="Gradient bez nazwy 72" x1="-17.57" y1="30.27" x2="95.82" y2="30.27" gradientUnits="userSpaceOnUse">
      <stop offset="0" stop-color="#f15c66"/>
      <stop offset="1" stop-color="#46339b"/>
      <stop offset="1" stop-color="#a855f1"/>
    </linearGradient>
  </defs>
  <g id="Warstwa_1-2" data-name="Warstwa 1">
    <path class="cls-1" d="M68.1,31.95h-10.09c-.46,0-.84,.37-.84,.84s.38,.84,.84,.84h10.09c.46,0,.84-.38,.84-.84s-.38-.84-.84-.84Zm0-6.73h-10.09c-.46,0-.84,.38-.84,.84s.38,.84,.84,.84h10.09c.46,0,.84-.37,.84-.84s-.38-.84-.84-.84Zm0-6.72h-10.09c-.46,0-.84,.37-.84,.84s.38,.84,.84,.84h10.09c.46,0,.84-.38,.84-.84s-.38-.84-.84-.84Zm0-6.73h-10.09c-.46,0-.84,.38-.84,.84s.38,.84,.84,.84h10.09c.46,0,.84-.37,.84-.84s-.38-.84-.84-.84Zm-16.81-1.68h-10.09c-.47,0-.84,.38-.84,.84v21.86c0,.46,.37,.84,.84,.84h10.09c.46,0,.84-.38,.84-.84V10.93c0-.46-.38-.84-.84-.84Zm-.84,21.86h-8.41V11.77h8.41V31.95Zm17.65-20.18h-10.09c-.46,0-.84,.38-.84,.84s.38,.84,.84,.84h10.09c.46,0,.84-.37,.84-.84s-.38-.84-.84-.84Zm0,6.73h-10.09c-.46,0-.84,.37-.84,.84s.38,.84,.84,.84h10.09c.46,0,.84-.38,.84-.84s-.38-.84-.84-.84Zm0,6.72h-10.09c-.46,0-.84,.38-.84,.84s.38,.84,.84,.84h10.09c.46,0,.84-.37,.84-.84s-.38-.84-.84-.84Zm0,6.73h-10.09c-.46,0-.84,.37-.84,.84s.38,.84,.84,.84h10.09c.46,0,.84-.38,.84-.84s-.38-.84-.84-.84ZM51.29,10.09h-10.09c-.47,0-.84,.38-.84,.84v21.86c0,.46,.37,.84,.84,.84h10.09c.46,0,.84-.38,.84-.84V10.93c0-.46-.38-.84-.84-.84Zm-.84,21.86h-8.41V11.77h8.41V31.95Zm.84-21.86h-10.09c-.47,0-.84,.38-.84,.84v21.86c0,.46,.37,.84,.84,.84h10.09c.46,0,.84-.38,.84-.84V10.93c0-.46-.38-.84-.84-.84Zm-.84,21.86h-8.41V11.77h8.41V31.95Zm17.65,0h-10.09c-.46,0-.84,.37-.84,.84s.38,.84,.84,.84h10.09c.46,0,.84-.38,.84-.84s-.38-.84-.84-.84Zm0-6.73h-10.09c-.46,0-.84,.38-.84,.84s.38,.84,.84,.84h10.09c.46,0,.84-.37,.84-.84s-.38-.84-.84-.84Zm0-6.72h-10.09c-.46,0-.84,.37-.84,.84s.38,.84,.84,.84h10.09c.46,0,.84-.38,.84-.84s-.38-.84-.84-.84Zm0-6.73h-10.09c-.46,0-.84,.38-.84,.84s.38,.84,.84,.84h10.09c.46,0,.84-.37,.84-.84s-.38-.84-.84-.84Zm0,0h-10.09c-.46,0-.84,.38-.84,.84s.38,.84,.84,.84h10.09c.46,0,.84-.37,.84-.84s-.38-.84-.84-.84Zm0,6.73h-10.09c-.46,0-.84,.37-.84,.84s.38,.84,.84,.84h10.09c.46,0,.84-.38,.84-.84s-.38-.84-.84-.84Zm0,6.72h-10.09c-.46,0-.84,.38-.84,.84s.38,.84,.84,.84h10.09c.46,0,.84-.37,.84-.84s-.38-.84-.84-.84Zm0,6.73h-10.09c-.46,0-.84,.37-.84,.84s.38,.84,.84,.84h10.09c.46,0,.84-.38,.84-.84s-.38-.84-.84-.84ZM51.29,10.09h-10.09c-.47,0-.84,.38-.84,.84v21.86c0,.46,.37,.84,.84,.84h10.09c.46,0,.84-.38,.84-.84V10.93c0-.46-.38-.84-.84-.84Zm-.84,21.86h-8.41V11.77h8.41V31.95Zm29.42,16.81h-4.2V5.66c0-3.12-2.54-5.66-5.66-5.66H10.71c-3.12,0-5.66,2.54-5.66,5.66V48.76H.84c-.46,0-.84,.38-.84,.84,0,6.03,4.91,10.93,10.93,10.93h58.85c6.03,0,10.93-4.9,10.93-10.93,0-.46-.38-.84-.84-.84ZM6.73,5.66c0-2.19,1.78-3.98,3.98-3.98h59.3c2.19,0,3.97,1.79,3.97,3.98V40.35H6.73V5.66Zm0,36.38H73.98v6.72H6.73v-6.72Zm63.05,16.81H10.93c-4.81,0-8.78-3.7-9.21-8.41H78.99c-.42,4.71-4.39,8.41-9.21,8.41ZM34.92,10.58c-.29-.31-.69-.49-1.11-.49H12.62c-.11,0-.22,.02-.32,.07-.05,.02-.1,.04-.15,.07-.04,.03-.09,.07-.13,.11-.04,.04-.08,.08-.11,.13-.03,.05-.05,.1-.07,.15-.05,.1-.07,.2-.07,.31v21.26c0,.38,.15,.74,.42,1.01,.27,.28,.64,.43,1.02,.43h20.59c.2,0,.39-.04,.56-.11,.21-.08,.4-.22,.56-.39,.14-.15,.24-.33,.3-.52,.06-.16,.09-.32,.09-.49V11.59c0-.37-.14-.73-.39-1.01Zm-2.47,1.19l-8.9,8.9L14.64,11.77h17.81Zm1.18,1.19V30.75l-8.9-8.89,8.9-8.9Zm-20.17,0l8.9,8.9-8.9,8.89V12.96Zm1.18,18.99l8.91-8.9,8.9,8.9H14.64Z"/>
  </g>
</svg>